<?xml version="1.0" encoding="utf-8"?>
<!-- Generator: Adobe Illustrator 23.0.1, SVG Export Plug-In . SVG Version: 6.00 Build 0)  -->
<svg version="1.1" id="Layer_1" xmlns="http://www.w3.org/2000/svg" xmlns:xlink="http://www.w3.org/1999/xlink" x="0px" y="0px"
	 viewBox="0 0 280 200" style="enable-background:new 0 0 280 200;" xml:space="preserve">
<style type="text/css">
	.st0{fill:#F7F7F6;}
	.st1{fill:#959593;}
	.st2{fill:#3B3B3B;}
	.st3{fill:#EEEDEC;}
	.st4{fill:#666564;}
	.st5{fill:#D2D1CF;}
</style>
<g>
	<g>
		<path class="st0" d="M0.3,198.1c0-65.3,0-130.5,0-195.8C0.6,2.4,0.6,2.1,0.7,2c89.8,0,179.5,0,269.3,0c1.2,0,1.5,0.3,1.5,1.5
			c0,64.6,0,129.2,0,193.8c0,1.2-0.3,1.5-1.5,1.5c-89.4,0-178.8,0-268.1-0.1c-0.5,0-1.1,0.4-1.5-0.3c0.1-0.1,0.2-0.2,0.2-0.3
			C0.5,198.1,0.4,198.1,0.3,198.1z M167.1,103.9c-0.3-0.3-0.7-0.7-1.2-0.8c-0.6-0.2-1.2-0.4-1.8-0.7c-1.2-0.5-2.7-0.1-3.7-1.2h0
			c-0.5-1.3-1.7-1.7-3-1.9c-0.9-0.1-1.5-0.5-2-1.2c-0.2-1.1-0.8-1.8-2-1.6c-0.5-0.8-1.3-0.4-1.9-0.5c-0.3-0.6-0.6-1.3-1.3-1.6
			c0-0.9-0.4-1.5-1.4-1.6c-0.3-0.1-0.6-0.2-0.8-0.3c-1.6-0.7-1.5-2.7-2.7-3.7c0-0.4-0.2-0.6-0.6-0.6c-0.2-0.2-0.4-0.3-0.7-0.5
			c-0.4-0.2-0.7-0.3-1.1-0.5c-0.3-0.6-0.5-1.3-0.5-2c0.1-0.9-0.6-1.7-2-2.3c-0.8-0.9-1.2-2-1.3-3.2c0-1.2,0.2-2.4-1.4-2.8
			c-1.4-4.8-4.2-8.8-7.2-12.6c-0.7-0.9-1.4-1.2-2.5-0.8c-1.7,0.7-3.3,1.4-4.9,2.2c-2.7,1.3-3.8,3.3-3.7,6.3c0.1,0.9,0.9,1.9,0.3,2.6
			c-0.6,0.6-1.7,0.8-2.7,1.1c-5.1,1.5-9.9,4-15.3,4.5c-1.8,0.2-3.7,0.1-5.6,0.1c-1,0-1.7,0.5-2.1,1.5c-1.4,4.5-2.8,9-4.2,13.4
			c-0.3,1.1-0.4,2.2-1.8,2.7c-0.3,0.1-0.5,0.8-0.8,1.2c-1,1.9-0.9,4-1,6.1c-0.4,7.9-1.7,15.8-1.8,23.7c0,0.8-0.6,1.6,0.1,2.4
			c0.2,0.1,0.3,0.4,0.5,0.3c3.5-0.1,6.8,0.8,10.3,0.9c5.6,0.2,11.3,0.5,16.9,0.6c5.7,0.1,11.4,0.1,17.1,0c2.5,0,5.1,0.4,7.6-0.2
			c0.6,0.5,1.3,0,1.9,0.2c0.7,0.3,1.3,0.4,1.9-0.1c3.8,0,7.7,0.1,11.5,0.1c1,0.4,2.1,0.2,3.1,0.1c1.2-0.3,2.4-0.1,3.7-0.1
			c0.1,0.2,0.3,0.3,0.4,0.1c0.6,0,1.2,0,1.8,0c0.2,0.2,0.3,0.2,0.4-0.1c0.4,0,0.8,0,1.2,0c0.1,0.2,0.3,0.3,0.4,0c0.6,0,1.2,0,1.8,0
			c0.2,0.2,0.3,0.2,0.4-0.1c2.5,0,5,0.1,7.4-0.2c0.1,0,0.3,0,0.4,0c2.7,0.3,5.4-0.1,8.1-0.4c6.8-0.8,13.6-1.7,19.6-5.4
			c0.4-0.3,0.9-0.5,1-1c0.8-2.5,1-5.2-0.6-7.3c-0.9-1.2-1.5-2.3-1.9-3.6c-0.8-2.6-2.6-3.8-5.2-3.9c-2.9-0.6-5.9-1.3-8.8-1.9
			c-1.5-0.3-3.1-0.9-4.7-0.7c-0.2-1.1-1.1-0.5-1.6-0.7c-2.7-0.6-5.5-1.3-8.2-1.9c-1-0.4-1.4-1.5-2.5-1.7c-0.1-0.1-0.3-0.1-0.4-0.1
			c-0.2,0-0.4-0.1-0.6-0.1C167.4,104.3,167.3,104.1,167.1,103.9z"/>
		<path class="st1" d="M0.6,2c0,0.2,0,0.4-0.3,0.3C0.3,2,0.4,1.9,0.6,2z"/>
		<path class="st1" d="M0.3,198.1c0.1,0,0.2,0,0.2,0c-0.1,0.1-0.2,0.2-0.2,0.3C0.3,198.3,0.3,198.2,0.3,198.1z"/>
		<path class="st2" d="M194.6,111.6c2.6,0.1,4.4,1.3,5.2,3.9c0.4,1.3,1.1,2.5,1.9,3.6c1.7,2.2,1.5,4.8,0.6,7.3c-0.2,0.5-0.6,0.7-1,1
			c-6,3.7-12.8,4.7-19.6,5.4c-2.7,0.3-5.4,0.7-8.1,0.4c-0.1-0.2-0.3-0.3-0.4,0c-2.5,0.3-4.9,0.2-7.4,0.2c-0.1,0-0.3,0-0.4,0.1
			c-0.6,0-1.2,0-1.8,0c-0.1,0-0.3,0-0.4,0c-0.4,0-0.8,0-1.2,0c-0.1,0-0.3,0.1-0.4,0.1c-0.6,0-1.2,0-1.8,0c-0.1,0-0.3,0-0.4-0.1
			c-1.2,0-2.4-0.2-3.7,0.1c0-0.1-0.1-0.4-0.1-0.4c1-0.4,2.6,0.4,3.1-1.3c0.1-0.2,0.4,0.4,0.6,0.5c0.9,0.7,1.9,1,2.7-0.1
			c0.5-0.6,0.8-0.7,1.3,0c0.8,1.1,1.9,1.1,2.6,0c0.4-0.5,0.6-0.6,0.9-0.1c0.9,1.3,1.8,1.2,2.6,0c0.4-0.6,0.6-0.5,1,0.1
			c0.8,1.2,1.7,1.1,2.4-0.1c0.3-0.4,0.5-0.5,0.9-0.3c0,0.4,0.2,0.9,0.6,0.4c0.4-0.5,0.9-0.6,1.4-0.5c1.1,0.3,1.5-0.2,1.6-1.2
			c3.6-0.4,7.2-0.9,10.7-1.8c0.3,0.1,0.7,0.1,0.7,0.5c0,0.4-0.3,0.6-0.7,0.4c-0.6-0.2-0.9,0-1.1,0.7c0.7-0.1,1.5-0.6,1.8,0.6
			c0,0.2,0.9,0.2,1,0c0.4-0.8,0.9-0.1,1.3-0.3c0.5-0.3,1.6,0.3,1.5-0.9c0.4,0.4,0.7,0.5,1.3,0.3c1-0.4,2.1-0.6,3.1-1
			c2.4-0.8,2.7-1.3,2.5-3.6c0.9-0.7,2.1-0.9,2.8-1.9c0.2-0.2,0.2-0.3-0.1-0.3h0c0.2-1.2-0.5-1.5-1.5-1.3c0.1-0.1,0.3-0.2,0.3-0.3
			c0.1-0.4,1.3-0.2,0.4-1.1c-0.6-0.6-0.8-0.4-1.2,0.1c-0.8,0.8-1.9,1.1-2.9,1.5c-6.6,2.3-13.5,2.8-20.4,2.8
			c-11.7-0.1-23.4-0.6-35.1-1.2c-3.1-0.2-6.1-0.5-9.2-0.4c-0.7,0-1.4,0.1-2-0.3c-0.6-0.2-1.1-0.2-1.7-0.2c-3.2-0.4-6.5,0.2-9.8-0.5
			c-0.7-0.3-1.3-0.3-2-0.2c-1.1-0.1-2.1-0.1-3.2-0.2c-0.7-0.2-1.3-0.2-2-0.1c-2.2-0.2-4.4-0.1-6.7-0.2c-3.5-0.1-7.1-0.4-10.6-0.7
			c-0.3,0-0.5-0.1-0.8-0.1c-2.5,0-5-0.5-7.5,0.2c3,0.6,6,0.7,9.1,0.7c0.3,0.2,0.7,0.2,1.1,0.1c0.7,0.1,1.3,0.1,1.9,0.2
			c2.5,0.3,5.1,0.1,7.6,0.8c-0.1,0.7-0.1,1.2,0.8,1.2c1.1,0,2.2-0.1,3.4-0.2c-0.2-0.6-0.9-0.5-0.9-1.1c4.6,0.4,9.2,0.5,13.8,0.8
			c3.1,0.2,6.3,0.4,9.4,0.4c3.5,0.1,7,0.3,10.5,0.5c0.1,0,0.3,0,0.4,0.1c3.3,0.2,6.7,0.4,10,0.6c0.2,0.9-0.9,0.8-1.1,1.4
			c0.8,0.1,1.6,0.4,2.1-0.6c0.6-0.2,1,0.6,1.6,0.3c0.6,0,1,0.2,1,0.9c-2.3-0.1-4.6-0.3-6.9-0.4c-0.1,0-0.3,0-0.4,0
			c-0.8,0-1.7-0.1-2.5-0.1c0.1-0.3,0.4-0.3,0.7-0.3c1.1,0,2.2,0,3.3,0c0-0.1,0-0.2,0-0.3c-1.1-0.1-2.2-0.2-3.3-0.3
			c-2-0.3-3.9-1.3-6-0.4c-1.7-0.1-3.3-0.2-5-0.3c1.4,0.9,2.9,0.5,4.3,0.7c1.1,0.5,2.3,0.5,3.4,0.1c0.8-0.2,1.2,0,1.4,0.8
			c-2.3-0.1-4.5-0.3-6.8-0.4c-0.6-0.3-1.1-0.2-1.7-0.1c-0.6,0-1.3,0-1.9-0.1c0-0.3,0.6-0.3,0.5-0.7c0-0.1-0.3-0.2-0.4-0.2
			c-0.5,0.1-0.4,0.6-0.4,0.9c-1.8,0.2-3.6-0.2-5.4-0.3c-11.5-0.6-22.9-1.3-34.4-1.9c-2.9-0.2-5.9-0.3-8.8-0.4
			c-0.5,0-1.1-0.3-1.2,0.7c0,1.3-0.1,2.5-0.2,3.8c0,0.7,0.1,1.1,1,1.2c1.8,0.1,3.7,0.4,5.5,0.5c13.8,0.9,27.7,1.1,41.5,1.1
			c6.9,0,13.7-0.2,20.6,0.1c0,0.1,0,0.2,0,0.3c-1.8,0.4-3.7,0-5.5,0.2c-0.6-0.4-1.1-0.4-1.6,0c-0.6,0-1.3,0-1.9,0
			c-7.1,0-14.2-0.1-21.3-0.1c-0.4-0.3-0.9-0.3-1.3,0c-0.5,0-1.1,0-1.6,0c-1.4-0.3-2.8-0.3-4.3,0c-0.5,0-1.1,0-1.6,0
			c-1.1-0.4-2.3-0.2-3.4-0.1c-0.2,0-0.4,0-0.7,0c-8,0.1-15.9-0.7-23.9-1.1c-1.2-0.1-2.2-0.1-1.5,1.6c-0.1,0.4-0.4,0.3-0.7,0.3
			c-0.6-0.8-0.1-1.6-0.1-2.4c0.1-7.9,1.4-15.8,1.8-23.7c0.1-2.1,0-4.2,1-6.1c0.2-0.4,0.4-1.1,0.8-1.2c1.3-0.4,1.4-1.6,1.8-2.7
			c1.4-4.5,2.8-9,4.2-13.4c0.3-1,1.1-1.5,2.1-1.5c1.8-0.1,3.7,0,5.6-0.1c5.4-0.4,10.2-2.9,15.3-4.5c0.9-0.3,2.1-0.5,2.7-1.1
			c0.7-0.7-0.2-1.7-0.3-2.6c-0.2-3,1-4.9,3.7-6.3c1.6-0.8,3.2-1.5,4.9-2.2c1.2-0.5,1.8-0.1,2.5,0.8c3.1,3.8,5.8,7.8,7.2,12.6
			c-0.1,0.1-0.3,0.2-0.5,0.3c-0.1-0.1-0.1-0.2-0.1-0.3c-0.2-0.5-0.5-0.3-0.8-0.1c-0.2,0.1-0.6-0.1-0.6,0.4l-0.1-0.1
			c-0.5-0.4-0.7-0.9-0.9-1.5c-0.9-3-2.9-5.4-4.5-8c-0.3-0.5-0.6-1-1.3-1.1c-2-0.1-4.1,1.3-4.9,3.4c-0.1,0.1-0.1,0.3-0.1,0.4
			c-0.2,0.6-0.2,1.1,0,1.7c0,0.1,0.1,0.3,0.1,0.4c0.1,0.2,0.1,0.4,0.1,0.6c0,0.2,0,0.3,0.2,0.3c0.3,0.5,0.7,0.2,1,0.1
			c0.2,0,0.3-0.1,0.5-0.1c1.8,0,3.4,0.7,4.7,1.9c0.1,0.6,0.3,1.2-0.7,0.7c-0.4-0.2-0.7-0.4-1.1-0.7c-0.1,0-0.1-0.1-0.2-0.1
			c-0.3-0.4-0.8-0.6-1.2-0.6c-0.2-0.1-0.3-0.1-0.4-0.2c-0.6,0-1.1,0-1.6,0c-0.2,0.1-0.5,0.1-0.7,0.2c-0.3,0.1-0.6,0.1-0.9,0.2
			c-0.1,0.1-0.3,0.1-0.4,0.1c-0.3,0.1-0.6,0.1-0.9,0.1c-0.1,0.1-0.3,0.1-0.4,0.2c-2.1,0.5-4.2,1.1-6.2,1.9c-0.1,0-0.2,0.1-0.3,0.1
			c-2.9,0.7-5.7,1.9-8.5,2.8c-0.1,0.1-0.2,0.1-0.4,0.1c-0.3,0.1-0.6,0.1-0.9,0.2c-0.1,0.1-0.3,0.1-0.4,0.2c-0.3,0.1-0.6,0.2-0.9,0.2
			c-0.1,0-0.2,0.1-0.3,0.1c-0.2,0-0.4,0.1-0.6,0.1c-0.4-0.1-0.7-0.1-1,0.2c-0.5,0.1-1.1,0.1-1.6,0.2c-0.2,0-0.4,0-0.6,0
			c-1.4,0-2.9-0.2-4.3,0c-0.1,0.1-0.1,0.1-0.2,0.1c-0.2,0.8,0.5,0.5,0.8,0.7c1,0.3,2,0.2,3,0.1c0.2,0,0.5,0,0.7,0
			c0.3,0.1,0.5,0.1,0.8-0.1c0.5-0.1,1-0.1,1.5-0.2c0.4,0,0.8,0.1,1.1-0.2c0.4-0.1,0.8-0.2,1.2-0.2c0.1-0.1,0.2-0.1,0.3-0.2
			c0.7-0.2,1.3-0.4,2-0.5c0.1,0,0.2-0.1,0.3-0.1c1.6-0.3,3.1-0.9,4.6-1.5c0.1-0.1,0.2-0.1,0.3-0.2c4.2-0.9,8-2.8,12.1-3.8
			c0.1,0,0.3-0.1,0.4-0.1c1.2-0.1,2.3-0.1,3.4,0.3v0c0.3,0.2,0.5,0.4,0.8,0.6c0.1,0.1,0.2,0.1,0.3,0.2c1.6,0.7,0.1,1.1-0.2,1.6
			c-0.2-0.1-0.3-0.3-0.5-0.4c-0.9-0.7-2-0.5-3-0.2c-1.3,0.4-2.7,0.8-4,1.5c-9.7,5.1-18.9,11-29.5,14.1c-1,0.3-1.6,1.1-1.3,2
			c0.2,0.9,1.2,0.3,1.8,0.2c4.3-0.7,8-2.8,11.8-4.7c4.8-2.5,9.6-4.9,14.4-7.3c0.5-0.3,1.2-0.9,1.6,0.2c0.9,2.5,2.1,5,3.3,7.4
			c0.4,0.7,0.1,1.2-0.6,1.5c-2.7,1.3-5,3.1-7.3,4.9c-2.1,1.7-4,3.5-5.1,6c-0.2,0.5-0.9,1.2-0.1,1.5c0.7,0.3,1.4,0.4,2-0.7
			c2.7-5,7.4-7.8,12.1-10.5c0.6-0.3,0.9-0.1,1.2,0.4c1.7,2.3,3.9,3.2,6.8,3.1c3.5-0.2,6.4,1.1,9,3.6c2.3,2.3,4.8,4.4,8,5.5
			c0.9,0.3,1,0.8,1,1.6c0,1.8-0.3,3.5-0.6,5.2c-0.6,3.3-1.5,6.4-2.8,9.4c1.6,0.6,2.2,0,2.7-1.4c1-2.9,1.3-6,2.3-8.9
			c0.6-1.8,0.4-3.6,0.8-5.3c0.3-1.2-1.1-2.2-0.8-3.8c0.2-1.1,0.3-1.9,1.5-2.1c0,0.5,0.1,0.9,0.1,1.4c-0.2,1.3,0.4,1.3,1.3,0.9
			c-0.2,0.5-0.1,1.3-1,1.3c-0.5,0-0.4,0.3-0.4,0.7c0.1,0.9,0.8,1.1,1.4,1.3c3,1.2,6,2.3,9,3.4c1.6,0.6,2.4,0.2,3.2-1.1
			c0.2-0.4,0.7-0.7,0.4-1.2c-0.3-0.4-0.8-0.2-1.2-0.2l0,0c-0.2-0.6,0.3-1.1,0.3-1.6c0.2,0,0.4,0,0.6,0c0.1,0.3,0.2,0.7,0.4,0.8
			c1.3,1,0.6,2-0.1,2.8c-0.7,0.9-1.3,2.4-3.1,1.4c-1.3-0.7-2.7-0.9-4.1-1.4c-2.1-0.9-4.2-1.9-6.5-2.2c1.9,1.7,4.1,2.4,6.5,3.1
			c1.2,0.7,2.5,0.9,3.8,1.2c1.1,0.2,1.2,0.4,0.4,1.4c-2.2,2.7-4.7,5.3-5.7,8.7c-0.1,0.4-0.9,1-0.1,1.3c0.6,0.2,1.5,0.5,2.1-0.6
			c0.8-1.5,1.8-2.9,2.6-4.5c1.3-2.6,3.4-4.5,5.3-6.5c2.4-2.6,1.5-6-1.5-6.1c-0.2-0.3-0.3-0.7,0-1c0.2,0,0.4,0.1,0.6,0.1
			c0.1,0.1,0.3,0.1,0.4,0.1c1.1,0.2,1.6,1.3,2.5,1.7c0,0.2,0,0.4,0,0.6l-0.1,0c-0.2,0.3-0.1,0.5,0.1,0.7c0.3,1.7-0.3,3.1-1.4,4.2
			c-1,1.1-1.2,2.3-1.2,3.6c0,1.1,0.1,2.2,1.3,2.6c1.2,0.3,2.3-0.1,3.1-1.3c0.6-0.9,1.2-1.8,2.5-2c0.3,0.1,0.5,0.1,0.7-0.1
			c0.9-0.2,1.7-0.1,2.6,0c2.1,0.3,4.1,0.3,6.2,0c2.9-0.1,5.8-0.2,8.6-0.4c0.8-0.1,2-0.1,2.1-1.2c0.1-1-1.1-1-1.9-1.3
			C194.1,111.8,194.3,111.7,194.6,111.6z M116.9,123.7c-2.1-0.9-4.2-0.1-6.3-0.1c1.8,0.7,3.7,0.7,5.6,0.2c2,0.8,4,0.6,6,0.5
			C120.6,123.3,118.7,124.1,116.9,123.7z M186,116.4c0.2,0,0.4,0,0.5,0c0.3,0,0.5,0,0.8,0c0.2,0,0.4,0,0.6,0c0.3,0,0.5,0,0.8,0
			c0.2,0,0.4,0,0.6-0.1c0.3,0.1,0.5,0.1,0.7-0.1c0.2,0,0.4-0.1,0.7-0.1c1.5,0.3,2.9-0.3,4.3-0.4c0.3,0,0.5-0.1,0.6-0.4
			c0.1-0.5-0.3-0.5-0.6-0.5c-0.3,0-0.6,0-1,0c-0.1,0.1-0.3,0.1-0.4,0.2c-1,0.1-1.9,0.1-2.9,0.2c-1.5,0-3,0.1-4.5,0.1
			c-1.4,0-2.7-0.2-4,0.1c-0.5,0-1,0-1.5-0.1c-0.3,0-0.5,0-0.8,0c-0.7,0-1.4,0-2.2,0c-0.2,0-0.5,0-0.7,0c-2.6,0.1-3.3,2.3-4.6,4
			c1,0.3,1.6,0,2.2-0.7c0.6-0.6,0.8-1.7,2-1.8c0.2,0,0.5,0,0.7-0.1c0.2,0,0.4,0,0.6-0.1c0.3,0.1,0.5,0.1,0.7-0.2
			c1.2-0.2,2.4,0.2,3.6-0.3C183.4,116.2,184.7,116.9,186,116.4z M124.4,68c1.1-1.3,2.6-1.5,4.1-1.7c0.8-0.2,0.9-0.6,0.8-1.3
			c-0.2-0.9-0.8-0.6-1.3-0.4c-2,0.7-3.8,1.7-5.6,2.7c-1.3,0.7-2.5,4.7-1.7,6.4c0.8,1.6,1.6,0.5,2.3,0.4c1-0.2,0.3-1,0.1-1.3
			c-0.9-1.5-0.1-2.7,0.6-3.9C124,68.5,124.2,68.3,124.4,68z M103.5,108.7c0.2-0.4,0.6-0.2,0.9-0.3c0.9,0.4,1.9,0.7,2.8,1.2
			c1.7,0.9,3.2,2.1,5,2.7c5.7,1.9,11.5,3.3,17.4,4.4c2.4,0.4,4.7,0.6,7.1-0.1c3.3-1,4.6-3.7,3.1-6.9c-1.1-2.4-2.9-4.2-5-5.8
			c-0.9-0.7-1.5-1.7-2.9-1.7c0.1,1.5,0.3,2.9,0.5,4.4c0.3,1.8-0.8,3.4-2.5,3.9c-0.9,0.2-1.8,0.2-2.8,0.2c-3.5-0.3-6.9-1-10.3-1.8
			c-0.7-0.2-1.2-0.3-1.1,0.9c-0.1-1-0.5-1.4-1.3-1.6c-1.7-0.4-3.3-1-5-1.6c-6.1-2.1-12.3-4.1-18.5-5.9c-0.2-0.2-0.4-0.3-0.7-0.2
			c-0.9-0.4-1.3,0.2-1.5,0.9c-0.2,0.8,0.2,1.4,1,1.7c1.5,0.6,3,1.1,4.5,1.6c-0.2,0.2-0.3,0.3-0.4,0.4c-1.8-0.3-3.5-1.1-5.3-1.7
			c-0.6-0.2-1.1-0.3-1.3,0.4c-0.2,0.6,0.1,0.9,0.8,1.2c5,1.7,9.9,3.5,14.9,5.2c4.3,1.4,7.6,3.9,8.9,8.5c0.1,0.5,0.2,1,0.4,1.4
			c0.6,1,1.7,0.6,2.6,0.6c0.7,0.1,0.2-1,0-1.5c-1.4-3.8-3.6-6.9-7.3-8.8C106.2,109.9,104.8,109.3,103.5,108.7z M113.6,113.9
			c-0.1-0.1-0.1-0.1-0.2-0.2c0,0.1,0,0.2,0,0.3c1,1.9,2,3.7,2.5,5.8c0.2,0.7,0.6,0.9,1.3,1c2.3,0.1,4.6,0.3,6.9,0.4
			c7,0.4,14,0.8,21.1,1.2c0.7,0,1.3,0.2,1.7-0.8c1.6-4.1,2.7-8.4,3.1-12.8c0.1-1.1-0.4-1.7-1.3-2.1c-2.7-1-4.9-2.9-6.9-4.8
			c-2.2-2.2-4.7-3.3-7.7-3.7c-2.8-0.4-5,0.9-7.3,2.1c-4,2-8,4.1-12.4,5.3c-1,0.3-2.8-0.1-2.8,0.5c0.1,1.2,1.8,0.8,2.7,1.1
			c4.5,1.4,9.2,2.3,13.9,2.5c2.3,0.1,2.9-0.6,3.1-2.8c0.2-2.1-0.1-4.2-0.8-6.6c5.3,2.4,9.3,5.5,11.1,10.8c0.7,1.9-0.1,3.8-1.6,5.2
			c-1.9,1.7-4.1,2.1-6.6,2c-4-0.2-7.9-1.1-11.7-2.1C119,115.4,116.3,114.6,113.6,113.9z M108.1,104.6c0.9,0.1,1-0.6,1.2-1.1
			c1-1.9,2.1-3.7,3.8-5.2c2.6-2.2,5.3-4.2,8.1-6.1c0.6-0.4,1.2-0.8,0.8-1.7c-0.8-1.8-1.5-3.6-2.3-5.4c-0.2-0.6-0.5-0.7-1.1-0.4
			c-3.2,1.7-6.6,3-9.9,4.7c-5.7,3-11.1,6.4-17.7,7.2c-0.9,0.1-1.3,0.9-0.8,1.5c0.6,0.8,1.1,1.8,2.3,2.1c2.6,0.7,5.2,1.7,7.8,2.4
			C103,103.3,105.6,103.9,108.1,104.6z M98.8,120.2c4.5,0.2,7.8,0.4,11.2,0.6c1.3,0.1,1.4-0.4,1.1-1.5c-1-4-3.8-6.5-7.4-7.9
			c-5.1-1.9-10.3-3.5-15.4-5.3c-0.9-0.3-1.1-0.1-1.2,0.8c-0.3,3.7-0.6,7.4-0.9,11.1c-0.1,1,0.1,1.4,1.3,1.5
			C91.6,119.7,95.8,120.1,98.8,120.2z M165.4,117c-0.6,1-1,1.6-1.4,2.4c-0.5,0.9-0.9,1.9-1.3,2.8c-0.5,0.9-0.1,1.1,0.8,1.1
			c8.8,0.6,17.5,0.9,26.3-0.5c3.1-0.5,6.1-1.1,8.9-2.5c0.7-0.3,1.5-0.8,1.3-1.7c-0.2-1.1-0.6-2.2-1.2-3.2c0-0.1-0.4,0-0.6,0.1
			c-2.2,1.3-4.7,1.3-7.1,1.5c-4.1,0.3-8.3,0.1-12.4,0.3c-1.3,0.1-2.5,0.2-3.4,1.5C172.4,122.9,166.7,121.4,165.4,117z M92,92.6
			c11.1-3.6,20.7-9.4,30.8-14.8c-0.9-0.3-1.5,0-2.1,0.2c-4.3,1.4-8.7,2.9-13,4.3c-4,1.2-8,2.2-12.2,1.2c-0.5-0.1-0.7,0.1-0.8,0.5
			C94.1,86.8,92.5,89.3,92,92.6z M150.1,122.7c2.5,0.1,4.8,0.2,7.1,0.4c0.6,0,0.9-0.3,1.1-0.8c1.2-3.2,2.9-6.2,5.3-8.7
			c1-1.1,0.4-1.4-0.6-1.7c-2.7-0.7-5.4-1.7-8-2.9c-1.1-0.5-1.3-0.2-1.5,1c-0.3,2.2-0.4,4.5-1.1,6.6
			C151.6,118.6,151.2,120.7,150.1,122.7z M128.9,97.9c-1.3-0.9-2.4-1.6-3.3-2.6c-0.4-0.5-0.8-0.5-1.4-0.2c-2.9,1.6-5.8,3.4-8.2,5.8
			c-0.9,1-1.8,2-2.1,3.7C119.3,103.3,123.9,100.5,128.9,97.9z M167.6,114.6c-0.6,0.8-1.9,1-1.5,2.2c0.6,2.2,2.4,3.8,4.9,3.7
			c0.4,0,0.9,0,0.9-0.5c0.1-0.6-0.6-0.5-0.8-0.5c-2.1-0.4-3.2-1.6-3.4-3.7C167.6,115.3,167.6,114.9,167.6,114.6z M130.5,66.8
			c1.7,2.9,3.8,5.6,4.9,8.9c0.1,0.4,0.2,1.2,0.9,0.8c0.6-0.3,0.1-0.8-0.1-1.3c-0.6-1.5-1.5-2.7-2.1-4.2
			C133.4,69.2,132.2,67.7,130.5,66.8z M93.5,122.5c-1.7-0.6-3.4-0.9-5.7-0.6C89.9,123.3,91.8,122.6,93.5,122.5z M89.8,99
			c-0.8,0.1-1.4-0.5-1.8,0.3c-0.4,1-1,1.9-0.8,3.1c0,0.1,0.3,0.3,0.5,0.3c0.3,0,0.3-0.3,0.3-0.5C88.2,101,88.6,99.9,89.8,99z
			 M123.9,124.2c1.5,0.6,4.2,0.7,5.9,0.2C127.8,123.8,125.9,123.8,123.9,124.2z M97.7,122.2c-1,0-2,0-3,0c-0.3,0-0.7,0.2-0.7,0.6
			c0,0.4,0.5,0.3,0.8,0.3C95.9,123.2,96.9,123.2,97.7,122.2z M130.4,124.4c1.3,0.6,2.7,1.1,4.2-0.1C133.1,124,131.8,124,130.4,124.4
			z M99.9,122.8c0,0.2,0,0.3,0,0.5c1.5,0,3.1,0,4.6,0C103,123.3,101.5,122,99.9,122.8z M196.4,112.3c0.1,0.9,0.2,1.4,0,1.9
			c-0.2,0.3-0.3,0.8,0.1,1c0.4,0.3,0.9,0,1.1-0.3C198.8,113.5,197.3,113.3,196.4,112.3z M178.6,130.9c0-0.3-0.3-0.3-0.4-0.3
			c-0.2,0-0.5,0.1-0.5,0.2c-0.1,0.4,0.3,0.4,0.5,0.4C178.4,131.2,178.6,131.2,178.6,130.9z M179.2,132.1c0.3-0.5,0.3-0.9,0-1.3
			C179,131.2,179,131.6,179.2,132.1z M187.1,130.8c-0.1,0-0.2-0.1-0.3-0.1c-0.1,0-0.1,0.1-0.1,0.2c0.1,0,0.2,0.1,0.2,0.1
			C187,131,187,130.9,187.1,130.8z M140.2,124.5c0,0-0.1-0.1-0.1,0c-0.1,0-0.2,0.1,0,0.2c0,0,0.1,0,0.1,0
			C140.2,124.6,140.2,124.6,140.2,124.5z"/>
		<path class="st3" d="M85.1,131.3c-0.7-1.7,0.4-1.7,1.5-1.6c8,0.3,15.9,1.1,23.9,1.1c0.2,0,0.4,0,0.7,0c1.1,0.3,2.3,0.2,3.4,0.1
			c0.5,0,1.1,0,1.6,0c1.4,0.1,2.8,0.2,4.3,0c0.5,0,1.1,0,1.6,0c0.4,0.1,0.9,0.1,1.3,0c7.1,0,14.2,0.1,21.3,0.1c0.6,0,1.3,0,1.9,0
			c0.6,0.5,1.1,0.5,1.6,0c1.8-0.2,3.7,0.1,5.5-0.2c4.2,0.4,8.4,0.3,12.7,0.3c2.1,0,4.2-0.1,6.4-0.1c0.4,0,1.3-0.3,0.7,0.7
			c-0.4-0.2-0.7-0.1-0.9,0.3c-0.7,1.2-1.6,1.3-2.4,0.1c-0.4-0.6-0.6-0.7-1-0.1c-0.8,1.3-1.7,1.3-2.6,0c-0.3-0.5-0.6-0.4-0.9,0.1
			c-0.7,1.1-1.8,1.1-2.6,0c-0.5-0.7-0.9-0.6-1.3,0c-0.8,1.1-1.8,0.8-2.7,0.1c-0.2-0.2-0.6-0.8-0.6-0.5c-0.5,1.8-2,1-3.1,1.3
			c0,0,0.1,0.3,0.1,0.4c-1.1,0.1-2.1,0.3-3.1-0.1c-0.6-0.8-2.1-0.4-2.3-1.7c0,0-0.6-0.1-0.6,0.2c0,1.7-1.2,0.9-1.9,1
			c-1,0.2-1.2-1.1-1.8-1.2c-0.7-0.1-0.7,1.2-1.8,1.3c-1.4,0.1-2.2-0.6-3.1-1.5c-0.5,0.7-0.2,1.3,0.1,1.8c-0.6,0.5-1.3,0.4-1.9,0.1
			c-0.7-0.6-1.4-1.1-2.2-1.6c-0.2-0.1-0.4,0.2-0.4,0.5c-1.1,0.7-2.4,0.4-3.6,0.4c-0.1-0.1-0.2-0.1-0.3-0.1c-0.4-1.1-0.7-1.6-1.6-0.3
			c-0.6,1-2.1,0.8-2.7-0.2c-0.3-0.5-0.4-0.7-0.9-0.2c-1,1.1-2.2,1.2-3.1,0.1c-0.6-0.8-1-0.4-1.5,0c-1.2,1.1-2,1.1-2.9-0.1
			c-0.3-0.4-0.6-0.6-1-0.2c-1.5,1.5-1.5,1.5-3.4,0.1c-0.3-0.2-0.6-0.2-0.9,0c-1.4,1.3-2.3,1.3-3.6,0c-0.4-0.4-0.6-0.3-0.9,0.1
			c-1.1,1.2-2.1,1.1-3.2-0.2c-0.4-0.4-0.6-0.5-1,0c-1.1,1.1-2.4,1-3.5-0.2c-0.3-0.4-0.6-0.6-1.1-0.2c-1.5,1.3-4.6,1.2-5.7-0.2
			c-0.6-0.7-0.8-0.7-1.1,0.2c-0.3,0.8-1.9,0.9-2.1,0.2c-0.4-1.2-0.6-1.2-1.5-0.2c-0.9,1.1-1.3-1-1.9-0.8c-0.7,0.3-1.4,1.6-2,0.5
			C85.8,129.6,85.6,131,85.1,131.3z"/>
		<path class="st3" d="M178.7,114.7c-0.9-0.1-1.7-0.2-2.6,0c-0.3,0.1-0.5,0.1-0.7,0.1c-1.2,0.2-1.9,1.1-2.5,2
			c-0.7,1.2-1.9,1.6-3.1,1.3c-1.2-0.3-1.3-1.5-1.3-2.6c0-1.3,0.2-2.5,1.2-3.6c1.1-1.1,1.7-2.5,1.4-4.2c0-0.2-0.1-0.5-0.1-0.7l0.1,0
			c2.2,0.5,4.3,1.1,6.5,1.6c0.6,0.1,1.3,0.6,1.7-0.2c0.6,0.1,1.4-0.4,1.6,0.7c0.1,0.3,0.3,0.3,0.5,0.3c4.1,1.1,8.2,1.8,12.3,2.6
			c0.8,0.3,1.9,0.3,1.9,1.3c-0.1,1.1-1.2,1.1-2.1,1.2c-2.9,0.2-5.8,0.3-8.6,0.4C182.9,114.6,180.8,114.6,178.7,114.7z"/>
		<path class="st4" d="M132.6,132.7c1.2-0.1,2.4,0.3,3.6-0.4c0.6,0,0.7,0.4,0.7,0.9c-2.5,0.7-5.1,0.2-7.6,0.2
			c-5.7,0.1-11.4,0.1-17.1,0c-5.6-0.1-11.3-0.4-16.9-0.6c-3.5-0.1-6.8-1-10.3-0.9c-0.2,0-0.3-0.2-0.5-0.3c0.3,0,0.6,0.1,0.7-0.3
			c0.5-0.3,0.7-1.7,1.6-0.1c0.6,1.1,1.3-0.2,2-0.5c0.6-0.3,1,1.9,1.9,0.8c0.9-1,1-1,1.5,0.2c0.3,0.7,1.8,0.6,2.1-0.2
			c0.3-0.9,0.5-0.9,1.1-0.2c1.2,1.4,4.3,1.5,5.7,0.2c0.5-0.4,0.7-0.2,1.1,0.2c1.1,1.2,2.4,1.3,3.5,0.2c0.4-0.4,0.7-0.4,1,0
			c1,1.3,2.1,1.3,3.2,0.2c0.3-0.4,0.5-0.5,0.9-0.1c1.3,1.3,2.2,1.3,3.6,0c0.3-0.3,0.6-0.3,0.9,0c1.9,1.4,1.9,1.4,3.4-0.1
			c0.4-0.4,0.7-0.2,1,0.2c0.9,1.2,1.7,1.2,2.9,0.1c0.4-0.4,0.8-0.8,1.5,0c0.9,1.1,2.1,1,3.1-0.1c0.5-0.5,0.6-0.3,0.9,0.2
			c0.6,1,2.1,1.2,2.7,0.2c0.9-1.4,1.2-0.8,1.6,0.3C132.3,132.7,132.4,132.8,132.6,132.7z"/>
		<path class="st2" d="M151.6,96.1c0.7,0.1,1.4-0.3,1.9,0.5c-0.6,0-0.8,0.1-0.5,0.7c0.3,0.7,0.7,1.4,0.5,2.2
			c-2.3-0.4-3.3,0.5-3.3,2.9c0,0.8,0,1.7,0,2.6c-1.6-0.8-3.1-1.5-4.4-2.6c-0.8-0.7-1.9-1.2-2.1-2.4c1.3,0.1,1.5,1.7,2.7,1.8
			c0.5-2.6,0.2-3.2-2.3-4.7c-0.5-0.5-0.2-0.8,0.3-1.1c0.2,0.1,0.4,0.3,0.5,0.4c0.8,0.7,1.2,2,2.6,1.9c0,0.3,0.1,0.6,0.1,0.8
			c-0.1,0.6-0.4,1.2-0.4,1.8c-0.1,0.7,0.2,1.1,1,0.7c0.7,0.3,0.1,0.6,0,0.9c-0.2,0.5,0.1,0.7,0.4,0.8c0.3,0.1,0.8,0.3,0.8,0.1
			c-0.1-0.8,0.7-1.9-0.6-2.5c0.3-1.4,0.7-2.8,1-4.1c0.3,0.1,0.8,0.2,0.5,0.7c-0.4,0.6-0.1,1,0.4,1.1c0.7,0.1,1.4-0.2,1.8-0.8
			c0.2-0.3-0.1-0.9-0.6-1.1C151.7,96.8,151,96.8,151.6,96.1z"/>
		<path class="st3" d="M140.4,83.2c1.4,0.6,2.2,1.4,2,2.3c-0.4,0-0.2-0.6-0.7-0.6c0.1,1.5-0.7,2.7-1.3,4c-0.4,0.6-1.2,1.1-1,2.1
			c-0.1,0.4-0.8,0.3-0.7,0.8c-0.8,0.7-1.7,1.5-2.5,2.2c-0.6,0.6-0.8,0.2-1-0.3c-0.2-0.6,0.1-1,0.5-1.5c0.9-1.2,1.8-2.4,2.6-3.7
			c0.2-0.3,0.3-0.5,0.5-0.8c0.4-0.3,0.5-0.6,0.6-1C140.3,85.7,140.9,84.6,140.4,83.2z"/>
		<path class="st3" d="M137.2,77.6c0.1-0.1,0.3-0.2,0.5-0.3c1.6,0.3,1.4,1.6,1.4,2.8c-0.3,0.2-0.9-0.6-0.9,0.3
			c-0.9,0.7-1.8,1.5-2.8,2.1c-0.3,0.2-0.8,0.7-1.1,0.2c-0.3-0.4-0.6-0.9-0.1-1.5c0.2-0.2,0.5-0.3,0.3-0.7c-1.4,0.1-1.5-1.2-2.1-1.9
			l0,0c1.1,0,2.1,0,3.2,0c0.8,0,0.8,0.4,0.4,0.9c-0.1,0.1-0.3,0.3-0.3,0.3c0.1,0.3,0.3,0.1,0.5,0c0.5-0.3,1.1-0.7,0.8-1.5
			C136.9,78,136.9,77.7,137.2,77.6z"/>
		<path class="st2" d="M160.4,101.3c1,1.1,2.5,0.7,3.7,1.2c0.6,0.2,1.2,0.5,1.8,0.7c0,0.2,0,0.3,0,0.5c-0.4-0.1-0.9-0.4-0.9,0.4
			c0,0.8,0.1,1.5-0.1,2.3c-0.3,1.5,0.4,1.7,1.6,1.4l0,0c-0.8,1.2-2,1.4-2.1,0.4c-0.3-2-1.9-1.6-3.1-2c-0.1-0.1-0.2-0.1-0.4-0.2
			c-0.4-0.1-0.7-0.1-1,0.1C160.3,104.4,159.7,102.8,160.4,101.3z M164.7,105.2c-0.2-0.4-0.4-1-1.1-1.2c-0.6-0.2-1.3-0.4-1.9-0.5
			c-0.4-0.1-0.9-0.8-1.2,0c-0.2,0.6,0,1.2,0.6,1.5c0.9,0.4,1.9,0.7,2.9,1C164.6,106.1,164.7,105.8,164.7,105.2z"/>
		<path class="st3" d="M148.3,101.8c-0.8,0.4-1.1,0-1-0.7c0.1-0.6,0.3-1.2,0.4-1.8c0.7-1.1,0.7-2.4,0.9-3.7c0.1-0.9,0.2-1.7,0.3-2.6
			c1,0.1,1.4,0.6,1.4,1.6c-0.6,0.8-0.3,1.6-0.3,2.5c-0.3,1.4-0.7,2.8-1,4.1C148.5,101.2,148.3,101.4,148.3,101.8z"/>
		<path class="st5" d="M145.4,89c1.2,1,1.1,3,2.7,3.7c-0.7,1,0.7,1.9,0.1,2.9c-0.7,0.4,0.3,1.3-0.5,1.6c-0.2-0.9-1.1-1-1.6-1.6
			c-0.1-0.4-0.3-0.7,0-1.1c0.2-0.3,0.2-1-0.6-0.8c0.9-1.5,0.9-2.9-0.6-4c0-0.2,0-0.4,0-0.7l0,0C144.9,89,145.1,89,145.4,89z"/>
		<path class="st3" d="M153.6,99.5c0.2-0.8-0.2-1.5-0.5-2.2c-0.3-0.6-0.1-0.8,0.5-0.7c1.2-0.2,1.8,0.5,2,1.6c-0.4,0-0.7,0-0.4,0.6
			c0.4,1.1,0.5,2.3,0.3,3.4c0,0.4-0.5,0.8-0.1,1.3l0,0c-0.9,0.4-1.5,0.5-1.3-0.9c0.1-0.4,0-0.9-0.1-1.4
			C154.1,100.6,154.7,99.9,153.6,99.5z"/>
		<path class="st4" d="M138.1,80.3c0-0.9,0.7-0.1,0.9-0.3c0.1,1.2,0.6,2.2,1.3,3.2c0.5,1.4-0.1,2.5-0.9,3.6c-0.1,0-0.3,0-0.4,0
			c0-0.5-0.2-0.6-0.7-0.5c-1.3,0.4-2.6,0.7-3.9,1.1c-0.2-0.1-0.5-0.2-0.7-0.3c0.3-0.1,0.5-0.2,0.8-0.3c1.4-0.4,2.9-0.7,4.3-1.1
			c0.8-0.2,1.3-0.8,1.2-1.5c-0.2-0.9-1-0.3-1.5-0.3c-0.9,0.1-1.8,0.3-2.7,0.5c0-0.1,0-0.3,0-0.4c0.7-0.2,1.3-0.3,2-0.5
			c0.5-0.1,1.3-0.1,1.4-0.6c0.1-0.6-0.4-1.2-1-1.4C138.1,81.1,138.1,80.7,138.1,80.3z"/>
		<path class="st4" d="M193.8,111.9c-4.1-0.8-8.3-1.4-12.3-2.6c-0.2-0.1-0.4-0.1-0.5-0.3c1.6-0.3,3.1,0.3,4.7,0.7
			c2.9,0.6,5.9,1.3,8.8,1.9C194.3,111.7,194.1,111.8,193.8,111.9z"/>
		<path class="st4" d="M155.3,102.2c0.2-1.2,0.2-2.3-0.3-3.4c-0.2-0.6,0-0.6,0.4-0.6c0.5,0.7,1.1,1.1,2,1.2c1.2,0.2,2.4,0.5,3,1.9
			c-1,0.3-1.2-1.6-2.4-0.9c0.1,0.6,0.2,1.2,0.3,1.8c-0.1,0.1-0.2,0.2-0.4,0.3c-0.5-0.8-1.1-1.1-1.9-0.3
			C155.9,102.2,155.6,102.2,155.3,102.2z"/>
		<path class="st5" d="M158.4,102.2c-0.1-0.6-0.2-1.2-0.3-1.8c1.2-0.7,1.4,1.2,2.4,0.9h0c-0.7,1.5-0.2,3.2-0.4,4.7
			c0,0.1,0,0.3,0,0.4c-1.5,0.1-1.3-1.1-1.5-2C158.5,103.7,158.5,102.9,158.4,102.2z"/>
		<path class="st2" d="M140.8,133.3c-0.3-0.5-0.6-1.1-0.1-1.8c0.9,0.9,1.6,1.6,3.1,1.5c1.1-0.1,1.1-1.4,1.8-1.3
			c0.6,0.1,0.8,1.4,1.8,1.2c0.7-0.1,2,0.6,1.9-1c0-0.3,0.6-0.3,0.6-0.2c0.2,1.4,1.7,0.9,2.3,1.7
			C148.4,133.4,144.6,133.3,140.8,133.3z"/>
		<path class="st5" d="M150,97c0-0.8-0.3-1.7,0.3-2.5c0.7,0.3,1,1,1.3,1.6c-0.6,0.7,0.1,0.7,0.4,0.8c0.6,0.2,0.8,0.8,0.6,1.1
			c-0.4,0.6-1.1,0.9-1.8,0.8c-0.5-0.1-0.8-0.5-0.4-1.1C150.8,97.2,150.3,97.2,150,97z"/>
		<path class="st4" d="M179.4,108.4c-0.5,0.8-1.2,0.3-1.7,0.2c-2.2-0.5-4.3-1.1-6.5-1.6c0-0.2,0-0.4,0-0.6
			C173.9,107.1,176.7,107.7,179.4,108.4z"/>
		<path class="st4" d="M140.5,88.9c0.5-1.3,1.3-2.5,1.3-4c0.5-0.1,0.3,0.5,0.7,0.6c0,0.7,0.2,1.4,0.5,2c-1,0.1-1.8,0.4-1.5,1.6l0,0
			c-0.2-0.3-0.4,0-0.6,0.1C140.7,89,140.6,89,140.5,88.9z"/>
		<path class="st5" d="M141.4,89.1c-0.2-1.2,0.5-1.6,1.5-1.6c0.4,0.2,0.7,0.3,1.1,0.5c-0.4,0.1-1.1,0-1,0.8
			C142.6,89,142,89.3,141.4,89.1z"/>
		<path class="st2" d="M136.9,133.2c0-0.5,0-0.9-0.7-0.9c0-0.3,0.3-0.6,0.4-0.5c0.8,0.5,1.5,1.1,2.2,1.6
			C138.2,133.2,137.5,133.6,136.9,133.2z"/>
		<path class="st2" d="M148.1,95.6c0.6-1-0.8-1.9-0.1-2.9c0.3,0.1,0.6,0.2,0.8,0.3c-0.1,0.9-0.2,1.7-0.3,2.6
			C148.4,95.6,148.3,95.6,148.1,95.6z"/>
		<path class="st2" d="M143.1,88.7c-0.1-0.8,0.5-0.7,1-0.8c0.2,0.2,0.4,0.3,0.7,0.5c0,0.2-0.1,0.4-0.1,0.6l0,0c-0.1,0-0.2,0.1-0.3,0
			C143.9,89.1,143.5,89.1,143.1,88.7z"/>
		<path class="st4" d="M167.6,106.1c-0.2,0-0.4,0-0.6,0c-0.1-0.6-0.1-1.2-0.1-1.9c0.1-0.1,0.2-0.2,0.3-0.3c0.2,0.2,0.3,0.3,0.5,0.5
			c-0.3,0.3-0.2,0.7,0,1C167.6,105.7,167.6,105.9,167.6,106.1z"/>
		<path class="st4" d="M165.9,103.6c0-0.2,0-0.3,0-0.5c0.5,0.1,0.8,0.4,1.2,0.8c-0.1,0.1-0.2,0.2-0.3,0.3
			C166.6,104,166.3,103.8,165.9,103.6z"/>
		<path class="st3" d="M144.7,89c0-0.2,0.1-0.4,0.1-0.6c0.4,0,0.6,0.2,0.6,0.6C145.1,89,144.9,89,144.7,89z"/>
		<path class="st4" d="M168.7,104.7c-0.1-0.1-0.3-0.1-0.4-0.1C168.4,104.6,168.5,104.7,168.7,104.7z"/>
		<path class="st1" d="M173.1,133.2c0.2-0.3,0.3-0.2,0.4,0C173.4,133.2,173.3,133.2,173.1,133.2z"/>
		<path class="st1" d="M159.1,133.4c0.1,0,0.3,0,0.4,0.1C159.3,133.6,159.2,133.6,159.1,133.4z"/>
		<path class="st1" d="M161.3,133.4c0.1,0,0.3-0.1,0.4-0.1C161.7,133.6,161.5,133.6,161.3,133.4z"/>
		<path class="st1" d="M163,133.3c0.1,0,0.3,0,0.4,0C163.3,133.6,163.1,133.6,163,133.3z"/>
		<path class="st1" d="M165.3,133.4c0.1,0,0.3,0,0.4-0.1C165.6,133.5,165.4,133.6,165.3,133.4z"/>
		<path class="st3" d="M202.1,123.4c-0.6,1.1-1.9,1.3-2.8,1.9c-3.2,0.9-6.4,1.8-9.5,2.7c-0.3,0.1-0.6,0.2-0.9,0.3
			c-0.4-0.1-0.8,0-1.1,0.3c-3.5,0.8-7.1,1.3-10.7,1.8c-7.8,0-15.5-0.2-23.3,0c-6.9-0.3-13.7-0.1-20.6-0.1c-13.8,0-27.7-0.1-41.5-1.1
			c-1.8-0.1-3.7-0.4-5.5-0.5c-0.8-0.1-1-0.5-1-1.2c0.1-1.3,0.2-2.5,0.2-3.8c0-0.9,0.7-0.7,1.2-0.7c2.9,0.1,5.9,0.3,8.8,0.4
			c11.5,0.6,23,1.3,34.4,1.9c1.8,0.1,3.6,0.5,5.4,0.3c0.1,0,0.2,0,0.3,0c0.6,0,1.3,0,1.9,0.1c0.6,0.2,1.1,0.3,1.7,0.1
			c2.3,0.1,4.5,0.3,6.8,0.4c0.4,0,0.7,0,1.1,0.1c0.8,0,1.7,0.1,2.5,0.1c0.1,0,0.3,0,0.4,0c2.3,0.1,4.6,0.3,6.9,0.4
			c0.6,0,1.1,0.1,1.6,0.1c10.6,0.6,21.2,1,31.7-0.4c0.4,0.1,0.7,0,1-0.2c0.5-0.1,0.9-0.1,1.4-0.2c0.4-0.1,0.8-0.2,1.2-0.3
			c2.9-0.4,5.6-1.5,8.2-2.9h0C202.1,123.2,202.1,123.3,202.1,123.4z"/>
		<path class="st3" d="M113.6,113.9c2.7,0.7,5.3,1.5,8,2.1c3.9,0.9,7.7,1.9,11.7,2.1c2.4,0.1,4.7-0.3,6.6-2c1.6-1.4,2.3-3.2,1.6-5.2
			c-1.8-5.2-5.8-8.4-11.1-10.8c0.8,2.4,1,4.5,0.8,6.6c-0.2,2.3-0.8,2.9-3.1,2.8c-4.8-0.2-9.4-1.1-13.9-2.5c-1-0.3-2.6,0.1-2.7-1.1
			c-0.1-0.6,1.8-0.3,2.8-0.5c4.4-1.2,8.4-3.3,12.4-5.3c2.3-1.2,4.5-2.5,7.3-2.1c3,0.5,5.5,1.6,7.7,3.7c2,2,4.2,3.8,6.9,4.8
			c1,0.4,1.4,0.9,1.3,2.1c-0.4,4.4-1.5,8.7-3.1,12.8c-0.4,1-1,0.8-1.7,0.8c-7-0.4-14.1-0.8-21.1-1.2c-2.3-0.1-4.6-0.3-6.9-0.4
			c-0.7,0-1.1-0.2-1.3-1c-0.5-2.1-1.5-3.9-2.5-5.8C113.5,114,113.6,114,113.6,113.9z"/>
		<path class="st0" d="M108.1,104.6c-2.6-0.7-5.2-1.3-7.7-2c-2.6-0.8-5.2-1.7-7.8-2.4c-1.2-0.3-1.7-1.3-2.3-2.1
			c-0.4-0.6-0.1-1.4,0.8-1.5c6.6-0.8,12.1-4.2,17.7-7.2c3.2-1.7,6.6-3,9.9-4.7c0.6-0.3,0.8-0.2,1.1,0.4c0.7,1.8,1.5,3.6,2.3,5.4
			c0.4,0.9-0.2,1.3-0.8,1.7c-2.8,1.9-5.5,3.9-8.1,6.1c-1.7,1.5-2.8,3.3-3.8,5.2C109.1,104,109,104.7,108.1,104.6z"/>
		<path class="st3" d="M94.3,104.8c-1.5-0.5-3-1.1-4.5-1.6c-0.8-0.3-1.2-0.9-1-1.7c0.2-0.7,0.6-1.3,1.5-0.9
			c-0.1,0.2-0.4,0.5-0.2,0.7c0.5,0.4,0.5-0.4,0.8-0.4c6.2,1.8,12.4,3.7,18.5,5.9c1.6,0.6,3.3,1.1,5,1.6c0.8,0.2,1.2,0.5,1.3,1.6
			c-0.1-1.2,0.4-1.1,1.1-0.9c3.4,0.8,6.8,1.5,10.3,1.8c0.9,0.1,1.8,0.1,2.8-0.2c1.8-0.4,2.8-2.1,2.5-3.9c-0.2-1.4-0.3-2.9-0.5-4.4
			c1.3,0,2,1,2.9,1.7c2.1,1.6,3.9,3.4,5,5.8c1.5,3.2,0.2,5.9-3.1,6.9c-2.4,0.7-4.8,0.5-7.1,0.1c-5.9-1.1-11.7-2.5-17.4-4.4
			c-1.8-0.6-3.3-1.9-5-2.7c-0.9-0.5-1.9-0.8-2.8-1.2c-0.8-0.6-1.7-0.6-2.6-0.9C99.3,106.5,96.9,105.4,94.3,104.8z"/>
		<path class="st5" d="M153.6,99.5c1.2,0.3,0.5,1,0.3,1.6c-1.3,0.2-1.3,0.9-1.5,2.1c-0.3,1.5,1.1,2.6,0.8,3.8
			c-0.4,1.8-0.2,3.6-0.8,5.3c-1,2.9-1.3,6-2.3,8.9c-0.5,1.4-1.1,2-2.7,1.4c1.3-3,2.2-6.2,2.8-9.4c0.3-1.7,0.6-3.4,0.6-5.2
			c0-0.8-0.1-1.3-1-1.6c-3.2-1.1-5.7-3.3-8-5.5c-2.6-2.5-5.5-3.8-9-3.6c-2.9,0.2-5.1-0.8-6.8-3.1c-0.3-0.4-0.7-0.7-1.2-0.4
			c-4.7,2.7-9.4,5.5-12.1,10.5c-0.6,1.1-1.3,1-2,0.7c-0.8-0.4-0.1-1.1,0.1-1.5c1.1-2.5,3-4.4,5.1-6c2.3-1.8,4.7-3.6,7.3-4.9
			c0.7-0.4,1-0.8,0.6-1.5c-1.3-2.4-2.4-4.8-3.3-7.4c-0.4-1-1.1-0.4-1.6-0.2c-4.8,2.4-9.6,4.8-14.4,7.3c-3.7,2-7.5,4.1-11.8,4.7
			c-0.6,0.1-1.6,0.7-1.8-0.2c-0.2-0.8,0.3-1.7,1.3-2c10.6-3.1,19.9-9,29.5-14.1c1.2-0.7,2.6-1.1,4-1.5c1-0.3,2-0.5,3,0.2
			c-0.6,0.6-1.1,1.1-1.7,1.7c-2,0-3.3,1.4-5,2.2c-0.7,0.3-0.4,1-0.1,1.4c1.1,2.2,2.3,4.4,3.1,6.7c0.2,0.7,0.6,0.9,1.2,0.4
			c1.3-0.9,2.5-1.8,3.8-2.8c1.1,0,2.2,0.1,3.3,0.1c0,0.4-0.3,0.6-0.6,0.8c-1.6,1.3-3.4,2.5-5.2,3.6c-0.9,0.6-0.9,1-0.2,1.7
			c1.4,1.5,3.2,2.1,5.2,2.1c3,0,6,0.3,8.5,2.1c0.3,0.2,0.7,0.5,0.8-0.2c0.1,0,0.3,0,0.4-0.1l0,0c0,0.2-0.1,0.4-0.1,0.5
			c-0.6,0.8,0.3,0.8,0.7,1c0.4-0.1,0.5,0.1,0.4,0.5c0.1,0.2,0.2,0.4,0.5,0.3l0-0.1c0.2,1.2,1.3,1.7,2.1,2.4c1.3,1.1,2.8,1.8,4.4,2.6
			c0-1,0-1.8,0-2.6C150.3,100,151.3,99.2,153.6,99.5z"/>
		<path class="st0" d="M98.8,120.2c-3-0.2-7.2-0.5-11.3-0.7c-1.1-0.1-1.4-0.5-1.3-1.5c0.3-3.7,0.7-7.4,0.9-11.1
			c0.1-0.9,0.3-1.1,1.2-0.8c5.1,1.8,10.3,3.4,15.4,5.3c3.7,1.4,6.4,3.9,7.4,7.9c0.3,1.1,0.2,1.6-1.1,1.5
			C106.6,120.6,103.3,120.5,98.8,120.2z"/>
		<path class="st3" d="M165.4,117c1.3,4.5,7.1,6,9.9,1.8c0.9-1.3,2.1-1.4,3.4-1.5c4.1-0.2,8.3,0.1,12.4-0.3c2.4-0.2,4.9-0.3,7.1-1.5
			c0.2-0.1,0.5-0.2,0.6-0.1c0.6,1,1,2.1,1.2,3.2c0.1,0.9-0.6,1.3-1.3,1.7c-2.8,1.4-5.9,2-8.9,2.5c-8.7,1.4-17.5,1.1-26.3,0.5
			c-0.9-0.1-1.3-0.2-0.8-1.1c0.5-0.9,0.9-1.9,1.3-2.8C164.4,118.6,164.8,117.9,165.4,117z"/>
		<path class="st3" d="M92,92.6c0.5-3.3,2.1-5.8,2.7-8.6c0.1-0.4,0.3-0.7,0.8-0.5c4.2,1,8.2,0,12.2-1.2c4.4-1.3,8.7-2.8,13-4.3
			c0.6-0.2,1.3-0.5,2.1-0.2C112.7,83.1,103.1,88.9,92,92.6z"/>
		<path class="st3" d="M150.1,122.7c1.1-2.1,1.5-4.1,2.2-6.1c0.8-2.1,0.9-4.3,1.1-6.6c0.1-1.1,0.4-1.5,1.5-1c2.6,1.2,5.2,2.2,8,2.9
			c1,0.3,1.6,0.6,0.6,1.7c-2.4,2.5-4.1,5.4-5.3,8.7c-0.2,0.5-0.4,0.8-1.1,0.8C154.9,123,152.6,122.9,150.1,122.7z"/>
		<path class="st3" d="M142.7,124.3c-3.5-0.2-7-0.4-10.5-0.5c-3.1,0-6.3-0.2-9.4-0.4c-4.6-0.3-9.2-0.4-13.8-0.8c-1.1,0-2.2,0-3.3,0
			c-2.5-0.6-5-0.5-7.6-0.8c-0.7-0.1-1.3-0.1-1.9-0.2c-0.3-0.2-0.7-0.2-1.1-0.1c-3,0-6.1-0.1-9.1-0.7c2.5-0.6,5-0.2,7.5-0.2
			c0.2,0.2,0.5,0.2,0.8,0.1c3.5,0.3,7,0.6,10.6,0.7c2.2,0.1,4.4,0,6.7,0.2c0.7,0.4,1.3,0.2,2,0.1c1.1,0.1,2.1,0.1,3.2,0.2
			c0.7,0.4,1.3,0.2,2,0.2c3.2,0.7,6.5,0.1,9.8,0.5c0.5,0.4,1.1,0.2,1.7,0.2c0.6,0.4,1.4,0.4,2,0.3c3.1-0.2,6.1,0.2,9.2,0.4
			c11.7,0.6,23.4,1.1,35.1,1.2c6.9,0,13.8-0.5,20.4-2.8c1-0.4,2.1-0.7,2.9-1.5c0.4-0.4,0.6-0.7,1.2-0.1c0.8,0.9-0.3,0.7-0.4,1.1
			c0,0.1-0.2,0.2-0.3,0.3c-0.6,0.3-1.6,0.4-1.7,0.8c-0.4,1.3-2.2-0.1-2.5,1.4c-1.2-0.8-2.1,0.1-3.2,0.3c-1.3,0.2-2.6,0.4-3.9,0.6
			c-0.3-0.1-0.6-0.1-0.8,0.2c-0.8,0.1-1.6,0.1-2.5,0.2c-0.3-0.1-0.6-0.1-0.8,0.1c-2.6,0.1-5.1,0.3-7.6,0.3c-5.6,0-11.2-0.1-16.8-0.2
			c-1.2-0.5-2.5-0.3-3.8-0.4c-0.6,0-1.1,0.2-1.2,1c-0.6,0.2-1-0.5-1.6-0.3c-0.3-0.3-0.2-1.1-1-0.8c-3.3-0.2-6.7-0.4-10-0.6
			C143,124.3,142.9,124.3,142.7,124.3z"/>
		<path class="st0" d="M130.6,75.6c-1.4-1.2-2.9-1.9-4.7-1.9c-0.2,0-0.3,0.1-0.5,0.1c-0.3,0.1-0.7,0.3-1-0.1
			c-0.1-0.1-0.2-0.2-0.2-0.3c-0.1-0.2-0.1-0.4-0.1-0.6c0-0.1-0.1-0.3-0.1-0.4c-0.2-0.6-0.2-1.1,0-1.7c0.1-0.1,0.1-0.3,0.1-0.4
			c0.7-2.1,2.8-3.5,4.9-3.4c0.7,0,1,0.6,1.3,1.1c1.6,2.6,3.6,5,4.5,8c0.2,0.6,0.4,1.1,0.9,1.5c0.2,0.5-0.1,0.6-0.5,0.7
			c-1.3,0.3-2.1-0.5-2.9-1.3l0,0c-0.1-0.1-0.2-0.2-0.4-0.4l0,0c-0.1-0.1-0.2-0.2-0.4-0.4l0,0c-0.1-0.2-0.3-0.3-0.4-0.4
			C131,75.8,130.8,75.7,130.6,75.6z"/>
		<path class="st5" d="M103.5,108.7c1.4,0.7,2.8,1.3,4.1,2c3.7,1.9,5.9,5,7.3,8.8c0.2,0.5,0.6,1.5,0,1.5c-0.8-0.1-2,0.4-2.6-0.6
			c-0.2-0.4-0.3-0.9-0.4-1.4c-1.3-4.6-4.6-7.1-8.9-8.5c-5-1.7-10-3.5-14.9-5.2c-0.6-0.2-1-0.5-0.8-1.2c0.2-0.7,0.8-0.6,1.3-0.4
			c1.8,0.5,3.4,1.4,5.3,1.7C97,106.4,100.2,107.8,103.5,108.7z"/>
		<path class="st3" d="M128.9,97.9c-4.9,2.6-9.5,5.3-15,6.7c0.3-1.7,1.2-2.7,2.1-3.7c2.4-2.4,5.2-4.2,8.2-5.8c0.6-0.3,1-0.3,1.4,0.2
			C126.4,96.3,127.6,97,128.9,97.9z"/>
		<path class="st5" d="M167.6,106.1c0-0.2,0-0.4,0.1-0.6c3,0.2,3.9,3.6,1.5,6.1c-1.9,2.1-4,4-5.3,6.5c-0.8,1.5-1.8,2.9-2.6,4.5
			c-0.5,1.1-1.4,0.8-2.1,0.6c-0.8-0.3-0.1-0.9,0.1-1.3c1.1-3.4,3.6-6,5.7-8.7c0.8-0.9,0.6-1.2-0.4-1.4c-1.3-0.3-2.6-0.5-3.8-1.2
			c0-0.3,0-0.6,0-0.8c1.4,0.5,2.8,0.8,4.1,1.4c1.8,0.9,2.3-0.5,3.1-1.4c0.7-0.8,1.4-1.8,0.1-2.8
			C167.8,106.7,167.7,106.4,167.6,106.1z"/>
		<path class="st3" d="M160.1,106.4c0-0.1,0-0.3,0-0.4c0.3-0.2,0.6-0.3,1-0.1c0.1,0.1,0.2,0.1,0.4,0.2c1.2,0.4,2.7,0,3.1,2
			c0.2,1.1,1.4,0.9,2.1-0.4c0.4,0,1-0.2,1.2,0.2c0.3,0.4-0.2,0.8-0.4,1.2c-0.7,1.3-1.6,1.7-3.2,1.1c-3-1.1-6-2.2-9-3.4
			c-0.7-0.3-1.3-0.5-1.4-1.3c0-0.3-0.2-0.7,0.4-0.7c1,0,0.8-0.8,1-1.3l0,0c1.1-0.2,1.9,0.8,2.8,1.1c0.1,0.6,0.1,1.3,0.3,1.9
			c0.2,0.6,0.7,0.9,1.4,0.9C160.2,107.3,160.2,106.8,160.1,106.4z"/>
		<path class="st3" d="M112,79.7c-1.5,0.6-3,1.2-4.6,1.5c-0.1,0-0.2,0.1-0.3,0.1c-0.7,0.2-1.3,0.4-2,0.5c-0.1,0.1-0.2,0.1-0.3,0.2
			c-0.4,0.1-0.8,0.2-1.2,0.2c-0.4-0.1-0.8-0.2-1.1,0.2c-0.5,0.1-1,0.1-1.5,0.2c-0.3-0.1-0.5-0.1-0.8,0.1c-0.2,0-0.5,0-0.7,0
			c-1-0.3-2-0.2-3-0.1c-0.3-0.1-1.1,0.2-0.8-0.7c0.1,0,0.2,0,0.2-0.1c1.4-0.3,2.9-0.1,4.3,0c0.2,0.2,0.4,0.2,0.6,0
			c0.5-0.1,1.1-0.1,1.6-0.2c0.4,0.1,0.7,0.1,1-0.2c0.2,0,0.4-0.1,0.6-0.1c0.1,0,0.2-0.1,0.3-0.1c0.3-0.1,0.6-0.2,0.9-0.2
			c0.1-0.1,0.3-0.1,0.4-0.2c0.3-0.1,0.6-0.1,0.9-0.2c0.1-0.1,0.2-0.1,0.4-0.1c2.9-0.9,5.6-2.1,8.5-2.8c0.1,0,0.2-0.1,0.3-0.1
			c2-0.8,4.1-1.4,6.2-1.9c0.1-0.1,0.3-0.1,0.4-0.2c0.3-0.1,0.6-0.1,0.9-0.1c0.1-0.1,0.3-0.1,0.4-0.1c0.3-0.1,0.6-0.1,0.9-0.2
			c0.3,0.1,0.5,0,0.7-0.2c0.6,0,1.1,0,1.6,0c0.2,0.1,0.3,0.1,0.4,0.2c0.5,0.1,0.9,0.3,1.2,0.6c-0.2,0.1-0.3,0.3-0.5,0.4
			c-1.1-0.4-2.3-0.4-3.4-0.3c-0.1,0-0.3,0.1-0.4,0.1c-4.1,1-7.9,2.9-12.1,3.8C112.2,79.6,112.1,79.7,112,79.7z"/>
		<path class="st4" d="M189.8,128.1c3.2-0.9,6.4-1.8,9.5-2.7c0.2,2.3-0.2,2.9-2.5,3.6c-1,0.3-2.1,0.6-3.1,1c-0.6,0.2-0.9,0-1.3-0.3
			c-0.5-0.3-1.5,0.9-1.5-0.6c0,0.5,0,1,0,1.5c-0.4,0.2-1-0.6-1.3,0.3c-0.1,0.3-1,0.2-1,0c-0.3-1.2-1.1-0.6-1.8-0.6
			c0.2-0.7,0.5-0.9,1.1-0.7c0.4,0.1,0.7,0,0.7-0.4c0-0.4-0.4-0.4-0.7-0.5c0.3-0.3,0.7-0.3,1.1-0.3c0.1,0.5-0.2,1.1,0.6,1.7
			C188.9,129,191,129.1,189.8,128.1z"/>
		<path class="st5" d="M123.8,68.8c-0.7,1.2-1.5,2.4-0.6,3.9c0.2,0.3,0.8,1.1-0.1,1.3c-0.7,0.1-1.5,1.3-2.3-0.4
			c-0.8-1.7,0.4-5.7,1.7-6.4c1.8-1,3.6-2,5.6-2.7c0.5-0.2,1.1-0.5,1.3,0.4c0.1,0.6,0,1.1-0.8,1.3c-1.5,0.3-3,0.5-4.1,1.7
			c-0.2-0.8-0.6-0.5-1-0.2C122.7,68.4,123.8,68.4,123.8,68.8z"/>
		<path class="st4" d="M153.8,130.4c7.8-0.3,15.5,0,23.3,0c-0.1,1-0.5,1.5-1.6,1.2c-0.5-0.1-1-0.1-1.4,0.5c-0.4,0.5-0.6,0-0.6-0.4
			c0.6-1-0.3-0.7-0.7-0.7c-2.1,0-4.2,0.1-6.4,0.1c-4.2,0-8.4,0.1-12.7-0.3C153.8,130.6,153.8,130.5,153.8,130.4z"/>
		<path class="st4" d="M193.1,124.2c1.1-0.2,2-1.2,3.2-0.3c0.2-1.4,2-0.1,2.5-1.4c0.1-0.4,1.1-0.5,1.7-0.8c1-0.2,1.7,0.2,1.5,1.3
			c-2.6,1.4-5.3,2.5-8.2,2.9c0-0.1,0-0.3,0.1-0.4c0.5-0.5,1.3-0.2,1.8-0.8c-0.9-0.7-1.7-0.4-2.5-0.1
			C193.1,124.6,193.1,124.4,193.1,124.2z"/>
		<path class="st5" d="M177.5,115.4c0.7,0,1.4,0,2.2,0c0.3,0.7,0.5,0.6,0.8,0c0.5,0,1,0,1.5,0.1c0,0.3,0.1,0.6,0.1,0.8
			c-1.2,0.5-2.4,0.1-3.6,0.3c-0.4-0.6-0.6-0.2-0.7,0.2c-0.2,0-0.4,0-0.6,0.1c-0.1-0.2-0.2-0.4-0.3-0.4c-0.4-0.1-0.3,0.3-0.4,0.5
			c-1.1,0.1-1.3,1.2-2,1.8c-0.6,0.6-1.3,1-2.2,0.7c1.2-1.7,1.9-3.9,4.6-4C177,115.9,177.2,116,177.5,115.4z"/>
		<path class="st3" d="M130.6,75.6c0.2,0.1,0.4,0.2,0.6,0.2c0.1,0.2,0.3,0.3,0.4,0.4l0,0c-0.1,0.3,0.1,0.4,0.4,0.4l0,0
			c0,0.3,0.1,0.4,0.4,0.4l0,0c0,0.6,0,1.1,0,1.7l0,0c-0.7-0.3-1.1,0.2-1.4,0.7c-0.9,0.3-1.6,1-1.9,1.9c-0.5,0.3-1.1,0.8-1.7,0.4
			c-0.7-0.5-0.1-1-0.1-1.6c1,0,1.4-0.9,1.9-1.5c0.3-0.5,1.7-0.9,0.2-1.6c0-0.2,0-0.4-0.3-0.2c-0.3-0.2-0.5-0.4-0.8-0.6
			c0.2-0.1,0.4-0.2,0.6-0.3c0.4,0.2,0.7,0.5,1.1,0.7C130.9,76.8,130.7,76.2,130.6,75.6z"/>
		<path class="st1" d="M167.6,114.6c0,0.4,0,0.8,0,1.1c0.2,2.1,1.3,3.3,3.4,3.7c0.3,0.1,0.9-0.1,0.8,0.5c-0.1,0.5-0.6,0.5-0.9,0.5
			c-2.5,0.1-4.3-1.5-4.9-3.7C165.8,115.5,167.1,115.3,167.6,114.6z"/>
		<path class="st5" d="M130.5,66.8c1.7,1,2.9,2.4,3.6,4.2c0.6,1.5,1.5,2.8,2.1,4.2c0.2,0.4,0.6,0.9,0.1,1.3
			c-0.7,0.4-0.8-0.4-0.9-0.8C134.3,72.3,132.2,69.7,130.5,66.8z"/>
		<path class="st4" d="M155.8,126c0.1-0.8,0.7-1,1.2-1c1.3,0,2.6-0.1,3.8,0.4c0.3,0.9,1.1,0.4,1.6,0.6c-0.2,0.2-0.4,0.4-0.6,0.6
			c-1.1,0.2-2.2-0.2-3.3,0.3c-0.6,0-1.1-0.1-1.6-0.1C156.8,126.2,156.4,126,155.8,126z"/>
		<path class="st3" d="M165.9,103.6c0.3,0.2,0.6,0.4,0.9,0.6c0.1,0.6,0.1,1.2,0.1,1.9c0,0.6-0.6,1-0.3,1.6c-1.2,0.3-1.9,0.1-1.6-1.4
			c0.1-0.7,0.1-1.5,0.1-2.3C165.1,103.2,165.6,103.6,165.9,103.6z"/>
		<path class="st4" d="M103.5,108.7c-3.3-0.9-6.4-2.2-9.6-3.4c0.2-0.2,0.3-0.3,0.4-0.4c2.6,0.7,5,1.8,7.5,2.7
			c0.9,0.3,1.8,0.3,2.6,0.9C104.1,108.5,103.7,108.2,103.5,108.7z"/>
		<path class="st1" d="M160.8,109.8c0,0.3,0,0.6,0,0.8c-2.3-0.7-4.6-1.4-6.5-3.1C156.6,107.9,158.7,108.8,160.8,109.8z"/>
		<path class="st4" d="M147,126.3c-0.4,0-0.7,0-1.1-0.1c-0.2-0.7-0.6-1-1.4-0.8c-1.1,0.3-2.3,0.3-3.4-0.1c0.3-0.1,0.6,0,0.6-0.3
			c2.1-0.9,4,0.1,6,0.4c0,0.2,0,0.4,0,0.6C147.4,126.1,147.1,126.1,147,126.3z"/>
		<path class="st1" d="M193.8,114.9c0.3,0,0.6,0,1,0c0.3,0,0.7,0.1,0.6,0.5c0,0.3-0.3,0.4-0.6,0.4c-1.4,0.1-2.8,0.7-4.3,0.4
			c0.2-0.3,0.3-0.7,0-1c1-0.1,1.9-0.1,2.9-0.2C193.6,115,193.7,115,193.8,114.9z"/>
		<path class="st4" d="M105.7,122.5c1.1,0,2.2,0,3.3,0c0,0.6,0.7,0.5,0.9,1.1c-1.2,0.1-2.3,0.1-3.4,0.2
			C105.7,123.8,105.6,123.2,105.7,122.5z"/>
		<path class="st4" d="M93.5,122.5c-1.8,0-3.6,0.8-5.7-0.6C90.1,121.6,91.8,121.9,93.5,122.5z"/>
		<path class="st5" d="M190.5,115.2c0.3,0.3,0.2,0.7,0,1c-0.2,0-0.4,0.1-0.7,0.1c-0.3-0.5-0.5-0.3-0.7,0.1c-0.2,0-0.4,0-0.6,0.1
			c-0.2-0.6-0.5-0.7-0.8,0c-0.2,0-0.4,0-0.6,0c-0.3-0.6-0.5-0.6-0.8,0c-0.2,0-0.4,0-0.5,0c0-0.4,0-0.7,0-1.1
			C187.5,115.3,189,115.3,190.5,115.2z"/>
		<path class="st1" d="M186,115.3c0,0.4,0,0.7,0,1.1c-1.4,0.5-2.6-0.3-4-0.2c0-0.3-0.1-0.6-0.1-0.8
			C183.3,115.1,184.6,115.3,186,115.3z M185.1,115.2c-0.2,0.5-0.3,0.7-0.3,0.8c0.1,0,0.3,0.1,0.4,0.1c0,0,0.1-0.2,0.1-0.2
			C185.2,115.7,185.1,115.6,185.1,115.2z"/>
		<path class="st1" d="M89.8,99c-1.2,0.9-1.6,2-1.7,3.2c0,0.2,0,0.5-0.3,0.5c-0.2,0-0.5-0.1-0.5-0.3c-0.2-1.1,0.3-2.1,0.8-3.1
			C88.3,98.5,89,99.1,89.8,99z"/>
		<path class="st1" d="M123.9,124.2c2.1-0.4,3.9-0.4,5.9,0.2C128.1,124.9,125.4,124.8,123.9,124.2z"/>
		<path class="st4" d="M116.2,123.8c-1.9,0.5-3.7,0.4-5.6-0.2c2.1,0,4.2-0.8,6.3,0.1C116.7,123.7,116.4,123.7,116.2,123.8z"/>
		<path class="st4" d="M132.3,78.6c0-0.6,0-1.1,0-1.7c0.8,0.8,1.6,1.7,2.9,1.3c0.4-0.1,0.7-0.2,0.5-0.7l0.1,0.1
			c-0.3,1.2,0.7,0.5,1.1,0.8c0.3,0.8-0.3,1.1-0.8,1.5c-0.1-0.1-0.1-0.2-0.2-0.3c0.4-0.5,0.4-0.9-0.4-0.9
			C134.4,78.6,133.3,78.6,132.3,78.6z"/>
		<path class="st4" d="M97.7,122.2c-0.8,1-1.8,1-2.9,0.9c-0.3,0-0.7,0.1-0.8-0.3c0-0.4,0.3-0.6,0.7-0.6
			C95.7,122.1,96.7,122.2,97.7,122.2z"/>
		<path class="st4" d="M130.4,124.4c1.3-0.4,2.6-0.3,4.2-0.1C133.1,125.5,131.7,124.9,130.4,124.4z"/>
		<path class="st1" d="M99.9,122.8c1.6-0.8,3.1,0.5,4.6,0.5c-1.5,0-3.1,0-4.6,0C100,123.1,99.9,122.9,99.9,122.8z"/>
		<path class="st1" d="M196.4,112.3c0.9,1,2.4,1.2,1.2,2.6c-0.2,0.3-0.7,0.6-1.1,0.3c-0.4-0.3-0.3-0.7-0.1-1
			C196.6,113.7,196.5,113.2,196.4,112.3z"/>
		<path class="st1" d="M116.2,123.8c0.2,0,0.5-0.1,0.7-0.1c1.8,0.4,3.6-0.3,5.3,0.7C120.2,124.3,118.2,124.6,116.2,123.8z"/>
		<path class="st1" d="M141.7,125.1c-0.1,0.3-0.4,0.3-0.6,0.3c-1.4-0.2-2.9,0.2-4.3-0.7C138.4,124.8,140.1,125,141.7,125.1z"/>
		<path class="st1" d="M129.1,78.3c-0.5,0.7-0.8,1.5-1.9,1.5c-0.1-0.1-0.2-0.2-0.3-0.2c0.6-0.6,1.1-1.1,1.7-1.7
			C128.8,78.1,128.9,78.2,129.1,78.3z"/>
		<path class="st4" d="M178.7,114.7c2.1-0.1,4.1-0.2,6.2,0C182.9,115,180.8,115.1,178.7,114.7z"/>
		<path class="st4" d="M153.2,124.9c0.8-0.3,0.7,0.5,1,0.8c-0.4,1-1.3,0.7-2.1,0.6C152.3,125.7,153.4,125.8,153.2,124.9z"/>
		<path class="st1" d="M190.9,130.5c0-0.5,0-1,0-1.5c0.1,1.4,1.1,0.3,1.5,0.6C192.5,130.8,191.5,130.3,190.9,130.5z"/>
		<path class="st1" d="M147.7,126c0-0.2,0-0.4,0-0.6c1.1,0.1,2.2,0.2,3.3,0.3c0,0.1,0,0.2,0,0.3C149.9,126,148.8,126,147.7,126z"/>
		<path class="st4" d="M120.5,130.8c-1.4,0.2-2.8,0.1-4.3,0C117.6,130.5,119.1,130.5,120.5,130.8z"/>
		<path class="st1" d="M123.8,68.8c0-0.4-1.1-0.4-0.4-1c0.4-0.3,0.8-0.6,1,0.2C124.2,68.3,124,68.5,123.8,68.8z"/>
		<path class="st4" d="M114.6,130.8c-1.1,0.1-2.3,0.2-3.4-0.1C112.3,130.6,113.5,130.4,114.6,130.8z"/>
		<path class="st0" d="M136.8,78.3c-0.4-0.3-1.4,0.4-1.1-0.8c0-0.5,0.4-0.3,0.6-0.4c0.3,0,0.5,0.1,0.8,0.1c0.1,0.1,0.1,0.2,0.1,0.3
			C136.9,77.7,136.9,78,136.8,78.3z"/>
		<path class="st4" d="M148.3,130.9c-0.5,0.6-1.1,0.5-1.6,0C147.2,130.5,147.8,130.5,148.3,130.9z"/>
		<path class="st5" d="M96.5,82.5c1,0,2-0.2,3,0.1C98.5,82.7,97.5,82.9,96.5,82.5z"/>
		<path class="st4" d="M178.6,130.9c0,0.3-0.3,0.3-0.5,0.3c-0.3,0-0.6,0-0.5-0.4c0-0.1,0.3-0.2,0.5-0.2
			C178.4,130.6,178.6,130.6,178.6,130.9z"/>
		<path class="st4" d="M135.5,125.7c-0.1,0-0.2,0-0.3,0c0.1-0.3,0-0.8,0.4-0.9c0.1,0,0.3,0.1,0.4,0.2
			C136.1,125.4,135.6,125.4,135.5,125.7z"/>
		<path class="st5" d="M118.9,122.1c-0.7,0.1-1.4,0.2-2-0.2C117.6,121.8,118.3,121.8,118.9,122.1z"/>
		<path class="st5" d="M113.7,121.8c-0.7,0.1-1.4,0.2-2-0.1C112.3,121.6,113,121.5,113.7,121.8z"/>
		<path class="st5" d="M91,100.8c-0.3,0.1-0.3,0.8-0.8,0.4c-0.2-0.2,0-0.5,0.2-0.7C90.6,100.5,90.8,100.6,91,100.8z"/>
		<path class="st4" d="M179.2,132.1c-0.2-0.5-0.2-0.9,0-1.3C179.5,131.2,179.5,131.6,179.2,132.1z"/>
		<path class="st4" d="M139.1,125.9c-0.6,0.2-1.2,0.1-1.7-0.1C138,125.7,138.6,125.6,139.1,125.9z"/>
		<path class="st5" d="M130.4,122.7c-0.6,0.1-1.1,0.2-1.7-0.2C129.3,122.5,129.8,122.5,130.4,122.7z"/>
		<path class="st1" d="M180.4,115.3c-0.2,0.6-0.5,0.7-0.8,0C179.9,115.4,180.2,115.4,180.4,115.3z"/>
		<path class="st1" d="M186.6,116.4c0.3-0.6,0.5-0.6,0.8,0C187.1,116.4,186.8,116.4,186.6,116.4z"/>
		<path class="st1" d="M187.9,116.4c0.3-0.7,0.5-0.5,0.8,0C188.4,116.4,188.1,116.4,187.9,116.4z"/>
		<path class="st1" d="M177.7,116.7c0.1-0.4,0.3-0.8,0.7-0.2C178.3,116.8,178,116.8,177.7,116.7z"/>
		<path class="st4" d="M123.4,130.8c-0.4,0.1-0.9,0.1-1.3,0C122.6,130.5,123,130.5,123.4,130.8z"/>
		<path class="st1" d="M189.2,116.4c0.2-0.4,0.4-0.6,0.7-0.1C189.7,116.5,189.4,116.5,189.2,116.4z"/>
		<path class="st1" d="M176.4,116.8c0.1-0.2,0-0.6,0.4-0.5c0.1,0,0.2,0.3,0.3,0.4C176.9,116.8,176.7,116.8,176.4,116.8z"/>
		<path class="st1" d="M177.5,115.4c-0.3,0.6-0.5,0.5-0.7,0C177,115.4,177.3,115.4,177.5,115.4z"/>
		<path class="st5" d="M102.5,82.4c0.3-0.3,0.7-0.3,1.1-0.2C103.2,82.5,102.8,82.4,102.5,82.4z"/>
		<path class="st5" d="M103.4,81.3c-0.3,0.3-0.7,0.3-1,0.2C102.7,81.2,103.1,81.2,103.4,81.3z"/>
		<path class="st5" d="M95.2,121.5c0.4-0.1,0.7-0.2,1.1,0.1C95.9,121.7,95.5,121.7,95.2,121.5z"/>
		<path class="st4" d="M187.1,130.8c-0.1,0.1-0.1,0.2-0.1,0.2c-0.1,0-0.1,0-0.2-0.1c0-0.1,0.1-0.2,0.1-0.2
			C186.9,130.7,187,130.8,187.1,130.8z"/>
		<path class="st5" d="M94.4,120.7c-0.3,0.1-0.6,0.1-0.8-0.1C93.9,120.7,94.2,120.7,94.4,120.7z"/>
		<path class="st5" d="M100.8,81.7c-0.2,0.2-0.4,0.3-0.6,0C100.4,81.7,100.6,81.7,100.8,81.7z"/>
		<path class="st4" d="M175.4,114.9c0.3-0.1,0.5-0.1,0.7-0.1C175.9,114.9,175.7,114.9,175.4,114.9z"/>
		<path class="st3" d="M137.1,77.3c-0.3,0-0.5-0.1-0.8-0.1C136.6,77,136.9,76.8,137.1,77.3z"/>
		<path class="st4" d="M140.2,124.5c0,0,0,0.1,0,0.1c0,0-0.1,0-0.1,0c-0.1-0.1-0.1-0.1,0-0.2C140.1,124.5,140.2,124.5,140.2,124.5z"
			/>
		<path class="st4" d="M171.1,107c0,0.2,0.1,0.5,0.1,0.7C170.9,107.5,170.8,107.3,171.1,107z"/>
		<path class="st5" d="M125.4,74.8c-0.2,0.2-0.4,0.3-0.7,0.2C124.9,74.9,125.2,74.8,125.4,74.8z"/>
		<path class="st5" d="M100.2,82.7c0.2-0.2,0.5-0.2,0.8-0.1C100.7,82.7,100.5,82.8,100.2,82.7z"/>
		<path class="st3" d="M124,70.3c-0.1,0.1-0.1,0.3-0.1,0.4C123.9,70.6,124,70.4,124,70.3z"/>
		<path class="st3" d="M123.9,72.4c0,0.1,0.1,0.3,0.1,0.4C124,72.6,123.9,72.5,123.9,72.4z"/>
		<path class="st5" d="M105.7,80.7c-0.1,0.1-0.3,0.1-0.4,0.2C105.5,80.8,105.6,80.7,105.7,80.7z"/>
		<path class="st3" d="M124.2,73.3c0.1,0.1,0.2,0.2,0.2,0.3C124.2,73.6,124.1,73.5,124.2,73.3z"/>
		<path class="st3" d="M125.4,73.8c0.2,0,0.3-0.1,0.5-0.1C125.7,73.8,125.6,73.8,125.4,73.8z"/>
		<path class="st5" d="M107,80.4c-0.1,0.1-0.2,0.1-0.4,0.1C106.8,80.5,106.9,80.4,107,80.4z"/>
		<path class="st5" d="M127.5,74.9c-0.2-0.1-0.3-0.1-0.4-0.2C127.2,74.8,127.3,74.9,127.5,74.9z"/>
		<path class="st5" d="M123.7,75.1c-0.1,0.1-0.3,0.1-0.4,0.1C123.5,75.2,123.6,75.2,123.7,75.1z"/>
		<path class="st5" d="M122.4,75.4c-0.1,0.1-0.3,0.1-0.4,0.2C122.2,75.5,122.3,75.5,122.4,75.4z"/>
		<path class="st5" d="M124.4,75.8c0.1,0,0.3-0.1,0.4-0.1C124.7,75.7,124.5,75.7,124.4,75.8z"/>
		<path class="st5" d="M112,79.7c0.1-0.1,0.2-0.1,0.3-0.2C112.2,79.6,112.1,79.7,112,79.7z"/>
		<path class="st5" d="M115.9,77.5c-0.1,0-0.2,0.1-0.3,0.1C115.7,77.6,115.8,77.5,115.9,77.5z"/>
		<path class="st4" d="M149.9,126.5c-0.1,0-0.3,0-0.4,0C149.7,126.4,149.8,126.4,149.9,126.5z"/>
		<path class="st3" d="M113.4,114.1c0-0.1,0-0.2,0-0.3c0.1,0.1,0.1,0.1,0.2,0.2C113.6,114,113.5,114,113.4,114.1z"/>
		<path class="st4" d="M193.8,114.9c-0.1,0.1-0.3,0.1-0.4,0.2C193.6,115,193.7,115,193.8,114.9z"/>
		<path class="st5" d="M104.8,82c0.1-0.1,0.2-0.1,0.3-0.2C105,81.9,104.9,82,104.8,82z"/>
		<path class="st5" d="M95.9,81.7c0,0.1-0.1,0.1-0.2,0.1C95.8,81.8,95.8,81.8,95.9,81.7z"/>
		<path class="st4" d="M202.1,123.4c-0.1-0.1-0.1-0.2-0.1-0.3C202.3,123.1,202.3,123.2,202.1,123.4z"/>
		<path class="st5" d="M107.1,81.3c0.1,0,0.2-0.1,0.3-0.1C107.3,81.2,107.2,81.3,107.1,81.3z"/>
		<path class="st5" d="M104.4,81.1c-0.1,0-0.2,0.1-0.3,0.1C104.2,81.1,104.3,81.1,104.4,81.1z"/>
		<path class="st4" d="M142.7,124.3c0.1,0,0.3,0,0.4,0.1C143,124.3,142.9,124.3,142.7,124.3z"/>
		<path class="st5" d="M129,76.5c0.3-0.2,0.3,0,0.3,0.2C129.2,76.7,129.1,76.6,129,76.5z"/>
		<path class="st5" d="M128.9,75.7c-0.2,0.1-0.4,0.2-0.6,0.3v0c0.2-0.1,0.3-0.3,0.5-0.4C128.7,75.6,128.8,75.6,128.9,75.7z"/>
		<path class="st1" d="M132.6,132.7c-0.2,0.1-0.3,0.1-0.3-0.1C132.4,132.6,132.5,132.6,132.6,132.7z"/>
		<path class="st0" d="M144.7,89.7c1.5,1.1,1.6,2.5,0.6,4c-0.3,0.8-0.6,1.7-0.9,2.5c-0.5,0.3-0.8,0.6-0.3,1.1l0,0
			c-0.4-0.6-0.8,0.3-1.2-0.1c-0.1-0.1-0.2-0.2-0.2-0.2c-0.6-1.1,0.8-1.9,0.6-2.9c0.8-1.3,0.8-2.8,0.9-4.3
			C144.5,89.7,144.6,89.7,144.7,89.7z"/>
		<path class="st3" d="M144.2,97.2L144.2,97.2c2.5,1.5,2.8,2.1,2.3,4.7c-1.3-0.1-1.5-1.8-2.7-1.8l0,0.1c0.1-0.2,0.1-0.4-0.2-0.5
			c-0.1,0-0.3,0.1-0.4,0.2c0.1-0.4-0.1-0.5-0.4-0.5c0.6-0.9-0.3-0.8-0.7-1c0-0.2,0.1-0.4,0.1-0.5C143,98,143.7,98.1,144.2,97.2z"/>
		<path class="st1" d="M146.1,95.6c0.4,0.6,1.4,0.7,1.6,1.6c0,0.4,0,0.8,0,1.3c-1.4,0.1-1.8-1.2-2.6-1.9
			C145.1,96,145.4,95.6,146.1,95.6z"/>
		<path class="st5" d="M148.3,101.8c0-0.4,0.2-0.7,0.6-0.7c1.3,0.6,0.5,1.6,0.6,2.5c0,0.3-0.5,0.1-0.8-0.1c-0.4-0.2-0.7-0.3-0.4-0.8
			C148.4,102.4,149,102.1,148.3,101.8z"/>
		<path class="st4" d="M146.1,95.6c-0.6,0-1,0.4-1,1c-0.2-0.1-0.4-0.3-0.5-0.4c0.3-0.8,0.6-1.7,0.9-2.5c0.8-0.2,0.8,0.5,0.6,0.8
			C145.7,94.9,145.9,95.2,146.1,95.6z"/>
		<path class="st4" d="M147.6,98.4c0-0.4,0-0.8,0-1.3c0.9-0.3-0.1-1.2,0.5-1.6c0.1,0,0.3,0,0.4,0c-0.1,1.3-0.2,2.6-0.9,3.7
			C147.7,99,147.7,98.7,147.6,98.4z"/>
		<path class="st2" d="M144.2,97.2c-0.5,0.9-1.3,0.8-2.1,0.6l0,0c-0.1-0.1-0.2-0.2-0.3-0.3c0,0.1-0.1,0.2-0.1,0.3
			c-0.1,0.7-0.5,0.4-0.8,0.2c-2.6-1.8-5.5-2.1-8.5-2.1c-2.1,0-3.8-0.6-5.3-2.1c-0.7-0.7-0.7-1.2,0.2-1.7c1.8-1.1,3.5-2.3,5.2-3.6
			c0.3-0.2,0.6-0.4,0.6-0.8c0-0.2,0-0.4,0-0.6c0.2,0,0.4-0.1,0.6-0.1c0.2,0.1,0.5,0.2,0.7,0.3c-0.2,0.3-0.4,0.8-0.7,1
			c-0.9,0.9-0.4,1.2,0.5,1.6c2,0.9,2.8-0.4,3.8-1.7c0.1,0.1,0.2,0.2,0.3,0.3c-0.9,1.2-1.8,2.4-2.6,3.7c-0.3,0.4-0.7,0.9-0.5,1.5
			c0.2,0.5,0.4,0.9,1,0.3c0.8-0.8,1.7-1.5,2.5-2.2c-0.1,0.8,0.4,0.9,1,0.9c0.6,0.2,1.2,0.7,2,0.6c0.3,0.6,0.9,0.6,1.4,0.7l0.1,0
			l0.1,0c0.2,1.1-1.2,1.8-0.6,2.9c0,0.2,0.1,0.3,0.2,0.2C143.4,97.5,143.9,96.7,144.2,97.2z M142.5,95.2c-0.9-1-1.9-1.5-3.2-1.9
			c-1.6-0.5-2.1,0.9-3.1,1.6c-0.9,0.7-1.7,0.1-1.7-0.7c0-1.5-0.9-1.5-1.9-1.7c-0.4-0.1-0.8-0.1-1.1-0.3c-1.3-1.1-2.4-0.4-3.5,0.4
			c-0.7,0.4-0.6,0.8-0.1,1.2c1.1,1.1,2.4,1.5,3.8,1.5c3.3,0.1,6.5,0.2,9.5,2.2C141,96.2,142.1,95.8,142.5,95.2z M135.9,90.9
			c-1-0.3-1.9-0.6-2.9-0.9c-0.7-0.2-1.1,0.2-1.6,0.6c-0.2,0.1-0.2,0.3-0.1,0.6C132,92.2,135,92.1,135.9,90.9z"/>
		<path class="st4" d="M143.4,94l-0.1,0l-0.1,0c0-0.8-0.1-1.5-1.2-1.4c0-0.1-0.1-0.1-0.1-0.2c0-0.2,0-0.3,0.1-0.5
			c0.4-0.1,0.8-0.2,1.3,0c-0.1,0.3,0,0.4,0.3,0.4c0.2,0,0.2-0.2,0-0.3c-0.2-0.7,0.5-1.3,0.2-2c-0.1-0.3,0-0.8-0.5-0.7
			c-1.2,0.3-2.6,0.2-3.1,1.6c-0.2,0-0.4,0-0.6,0c-0.2-0.9,0.5-1.4,1-2.1c0.1,0.1,0.2,0.1,0.3,0.2c0.2,0.4,0.4,0.4,0.6-0.1l0,0
			c0.6,0.2,1.1-0.1,1.7-0.3c0.4,0.3,0.8,0.4,1.3,0.3c0,0.2,0,0.4,0,0.6C144.2,91.2,144.2,92.7,143.4,94z"/>
		<path class="st1" d="M139.5,91c0.2,0,0.4,0,0.6,0c0.5,0.1,1.1,0.1,1.4,0.6c-0.6,0.2-1.6-0.2-1.7,1c-0.6,0-1.1-0.1-1-0.9
			C138.8,91.3,139.4,91.4,139.5,91z"/>
		<path class="st2" d="M139.1,86.8c0.1,0,0.3,0,0.4,0c-0.1,0.4-0.3,0.8-0.6,1c-0.1-0.1-0.2-0.2-0.3-0.3
			C138.8,87.3,138.9,87,139.1,86.8z"/>
		<path class="st2" d="M138.9,87.8c-0.2,0.3-0.3,0.5-0.5,0.8c-0.1-0.1-0.2-0.2-0.3-0.3c0.2-0.3,0.3-0.5,0.5-0.8
			C138.7,87.6,138.8,87.7,138.9,87.8z"/>
		<path class="st2" d="M130.9,79.2c0.3-0.5,0.7-0.9,1.4-0.7c0.6,0.8,0.8,2.1,2.1,1.9c0.2,0.4-0.1,0.5-0.3,0.7
			c-0.6,0.5-0.2,1.1,0.1,1.5c0.4,0.5,0.9,0,1.1-0.2c1-0.6,1.9-1.4,2.8-2.1c0,0.4,0,0.8,0,1.2c-1.3,0.1-1.9,1.2-2.9,1.8
			c-0.2,0.1-0.5,0.4-0.4,0.6c0.2,0.3,0.6,0.1,0.9,0.1c0,0.1,0,0.3,0,0.4c-0.5,0.1-1.1,0.3-1.6,0.4c-0.2-0.1-0.4-0.2-0.6-0.3
			C133.4,82.4,132.4,80.6,130.9,79.2z"/>
		<path class="st4" d="M136,79.8c-0.2,0.1-0.3,0.3-0.5,0c0,0,0.2-0.2,0.3-0.3C135.9,79.6,135.9,79.7,136,79.8z"/>
		<path class="st1" d="M164.7,105.2c0,0.6-0.1,1-0.7,0.8c-1-0.3-2-0.6-2.9-1c-0.6-0.3-0.9-0.9-0.6-1.5c0.3-0.8,0.8-0.1,1.2,0
			c0.6,0.1,1.3,0.3,1.9,0.5C164.3,104.1,164.5,104.7,164.7,105.2z"/>
		<path class="st5" d="M161.4,106.1c-0.1-0.1-0.2-0.1-0.4-0.2C161.2,105.9,161.3,106,161.4,106.1z"/>
		<path class="st3" d="M144.3,89.7c0-0.2,0-0.4,0-0.6c0.1,0,0.2,0,0.3,0c0,0.2,0,0.4,0,0.7C144.6,89.7,144.5,89.7,144.3,89.7z"/>
		<path class="st2" d="M158,104.5c-1-0.3-1.7-1.2-2.8-1.1c-0.4-0.5,0.1-0.9,0.1-1.3c0.3,0,0.6,0,0.8,0c0.2,0.9,1,0.8,1.6,1l0,0
			c0,0.1,0.1,0.2,0.1,0.2c0.1-0.1,0.1-0.2,0.2-0.2c0-0.1,0-0.3,0-0.4c0-0.1,0-0.2,0-0.3c0.1-0.1,0.2-0.2,0.4-0.3
			c0.1,0.8,0.1,1.5,0.2,2.3C158.4,104.5,158.2,104.5,158,104.5z"/>
		<path class="st3" d="M134.3,84.8c0.5-0.1,1.1-0.3,1.6-0.4c0.9-0.2,1.8-0.4,2.7-0.5c0.5-0.1,1.3-0.6,1.5,0.3
			c0.2,0.7-0.4,1.3-1.2,1.5c-1.4,0.3-2.9,0.7-4.3,1.1c-0.3,0.1-0.5,0.2-0.8,0.3c-0.2,0-0.4,0.1-0.6,0.1c-1,0-2,0-3,0
			c-0.5-0.2-1.4-0.1-1.4-0.7c-0.1-0.8,0.9-0.6,1.4-0.8c0.4-0.1,0.7-0.2,1.1-0.3C132.3,85.5,133.3,85.4,134.3,84.8z"/>
		<path class="st3" d="M138.6,87.5c-0.2,0.3-0.3,0.5-0.5,0.8c-0.9,1.2-1.8,2.6-3.8,1.7c-0.9-0.4-1.4-0.7-0.5-1.6
			c0.3-0.3,0.5-0.7,0.7-1c1.3-0.3,2.6-0.7,3.9-1.1c0.5-0.2,0.7,0,0.7,0.5C138.9,87,138.8,87.3,138.6,87.5z"/>
		<path class="st5" d="M135.9,84c-0.3,0-0.7,0.2-0.9-0.1c-0.2-0.3,0.1-0.5,0.4-0.6c1-0.6,1.6-1.7,2.9-1.8c0.6,0.3,1.2,0.8,1,1.4
			c-0.1,0.5-0.9,0.4-1.4,0.6C137.2,83.7,136.5,83.9,135.9,84z"/>
		<path class="st1" d="M157.8,103.2c-0.6-0.2-1.5-0.1-1.6-1c0.8-0.8,1.4-0.5,1.9,0.3c0,0.1,0,0.2,0,0.3
			C158,102.9,157.9,103,157.8,103.2z"/>
		<path class="st4" d="M158,104.5c0.2,0,0.4-0.1,0.6-0.1c0.2,0.9,0,2.1,1.5,2c0.1,0.4,0.1,0.9-0.5,0.9c-0.6,0-1.2-0.3-1.4-0.9
			C158.1,105.8,158.1,105.2,158,104.5z"/>
		<path class="st5" d="M141.4,89c-0.2,0.5-0.4,0.5-0.6,0.1C141,89.1,141.2,88.7,141.4,89z"/>
		<path class="st2" d="M158.5,127c1.1-0.5,2.2-0.2,3.3-0.3c1.1,0,2.3,0.1,3.4,0.1c0.3,0,0.8,0.1,0.8-0.3c0-0.6-0.5-0.4-0.8-0.4
			c-0.9,0-1.8,0-2.7,0c-0.5-0.2-1.3,0.3-1.6-0.6c5.6,0.1,11.2,0.2,16.8,0.2c2.6,0,5.1-0.2,7.6-0.3c0.3,0,0.5,0.1,0.8,0.1l0,0
			c-0.1,0.3-0.4,0.3-0.7,0.3c-3.8,0.3-7.7,0.4-11.5,0.3c-1.5,0-3-0.1-4.3,0.9c5.7,0.4,11.4-0.1,17.1-0.3c1.1-0.2,2.3,0,3.3-0.5
			c0.8-0.1,1.7-0.2,2.5-0.2c0.1,0.1,0.2,0.2,0.2,0.3c-0.5,0.1-0.9,0.1-1.4,0.2c-0.4-0.1-0.8-0.1-1,0.2
			C179.6,128,169.1,127.5,158.5,127z"/>
		<path class="st2" d="M189.8,128.1c1.2,1-0.9,0.9-0.3,1.9c-0.9-0.6-0.6-1.2-0.6-1.7C189.2,128.3,189.5,128.2,189.8,128.1z"/>
		<path class="st2" d="M193.8,125.6c0,0.1,0,0.3-0.1,0.4c-0.4,0.1-0.8,0.2-1.2,0.3c-0.1-0.1-0.2-0.2-0.2-0.3
			C192.9,125.8,193.4,125.7,193.8,125.6z"/>
		<path class="st4" d="M190.2,126.6c0.3-0.3,0.7-0.3,1-0.2C190.9,126.6,190.6,126.7,190.2,126.6z"/>
		<path class="st2" d="M131.3,85.4c-0.4,0.1-0.8,0.1-1.1,0.3c-0.5,0.2-1.4-0.1-1.4,0.8c0.1,0.7,0.9,0.6,1.4,0.7
			c-0.1,0.2-0.2,0.3-0.3,0.5c-1.3,0.9-2.6,1.8-3.8,2.8c-0.6,0.5-1,0.3-1.2-0.4c-0.8-2.3-2-4.5-3.1-6.7c-0.2-0.5-0.6-1.1,0.1-1.4
			c1.6-0.8,3-2.2,5-2.2c0.1,0.1,0.2,0.2,0.3,0.2c-0.1,0.5-0.6,1.1,0.1,1.6c0.7,0.4,1.2-0.1,1.7-0.4c0.7,0.4,0.7,1.2,1,1.8
			c0.4,0.8,0.3,1.8,1.3,2.3C131.3,85.2,131.3,85.3,131.3,85.4z M128.7,87.6c-1.3-1.4-1.2-1.7,0.6-2.3c0.2-0.1,0.5-0.1,0.4-0.4
			c-0.3-0.9-0.6-1.8-0.9-2.6c-0.3-0.8-0.8-0.1-1.3-0.1c-0.6,0-1.1-0.2-1.2-0.7c-0.3-1.2-0.9-0.8-1.6-0.4c-0.6,0.4-1.2,0.9-1.9,1.3
			c-0.3,0.2-0.5,0.3-0.2,0.6c0.9,1,1.2,2.4,1.7,3.6C125.8,89.9,125.8,89.9,128.7,87.6z"/>
		<path class="st4" d="M129.9,87.7c0.1-0.2,0.2-0.3,0.3-0.5c1,0,2,0,3,0c0,0.2,0,0.4,0,0.6C132.1,87.7,131.1,87.7,129.9,87.7z"/>
		<path class="st2" d="M142.1,98.4c0.4,0.2,1.3,0.1,0.7,1C142.4,99.1,141.5,99.2,142.1,98.4z"/>
		<path class="st2" d="M143.2,99.8c0.1-0.1,0.3-0.2,0.4-0.2c0.3,0.1,0.2,0.3,0.2,0.5C143.4,100.3,143.3,100,143.2,99.8z"/>
		<path class="st3" d="M141.8,97.9c0-0.1,0.1-0.2,0.1-0.3c0.1,0.1,0.2,0.2,0.3,0.3C142,97.8,141.9,97.9,141.8,97.9z"/>
		<path class="st2" d="M193.1,124.2c0,0.2,0,0.3,0,0.5c-1,0.1-1.9,0.3-2.9,0.4c-0.3,0-0.7,0-1,0l0,0c0-0.1,0-0.2,0-0.3
			C190.5,124.6,191.8,124.4,193.1,124.2z"/>
		<path class="st2" d="M186,125.2c0.8-0.1,1.6-0.1,2.5-0.2c0.3,0,0.5,0.1,0.8,0.1l0,0c-0.7,0.4-1.4,0.6-2.3,0.6
			c-0.3-0.4-0.7-0.1-1-0.3l0,0C186,125.3,186,125.2,186,125.2z"/>
		<path class="st4" d="M186,125.2c0,0.1,0,0.2,0,0.2c-0.3,0-0.5-0.1-0.8-0.1C185.4,125.1,185.7,125.1,186,125.2z"/>
		<path class="st4" d="M189.2,125.1c-0.3,0-0.5-0.1-0.8-0.1c0.2-0.2,0.5-0.2,0.8-0.2C189.3,124.9,189.2,125,189.2,125.1z"/>
		<path class="st4" d="M132.3,76.9c-0.3,0.1-0.4-0.1-0.4-0.4C132,76.7,132.2,76.8,132.3,76.9z"/>
		<path class="st4" d="M131.9,76.6c-0.3,0-0.4-0.1-0.4-0.4C131.7,76.4,131.8,76.5,131.9,76.6z"/>
		<path class="st4" d="M131.6,76.3c-0.1-0.2-0.3-0.3-0.4-0.4C131.4,76,131.5,76.1,131.6,76.3z"/>
		<path class="st1" d="M190.2,125.1c1-0.1,1.9-0.3,2.9-0.4c0.8-0.4,1.6-0.6,2.5,0.1c-0.5,0.6-1.3,0.3-1.8,0.8
			c-0.5,0.1-1,0.2-1.4,0.3c-0.8,0.1-1.7,0.1-2.5,0.2C190,125.8,190.1,125.4,190.2,125.1z"/>
		<path class="st5" d="M131.3,85.2c-1-0.5-0.9-1.6-1.3-2.3c-0.3-0.6-0.3-1.4-1-1.8c0.4-0.9,1-1.5,1.9-1.9c1.6,1.4,2.5,3.2,2.8,5.3
			C132.9,84.7,132,84.7,131.3,85.2z"/>
		<path class="st1" d="M162.4,126c0.9,0,1.8,0,2.7,0c0.3,0,0.9-0.2,0.8,0.4c0,0.4-0.5,0.3-0.8,0.3c-1.1,0-2.3-0.1-3.4-0.1
			C162,126.4,162.2,126.2,162.4,126z"/>
		<path class="st5" d="M185.1,115.2c0.1,0.4,0.2,0.5,0.2,0.6c0,0.1-0.1,0.2-0.1,0.2c-0.1,0-0.3-0.1-0.4-0.1
			C184.8,115.9,184.8,115.7,185.1,115.2z"/>
		<path class="st3" d="M143.1,97.1c-0.2,0-0.3-0.1-0.2-0.2C142.9,97,143,97.1,143.1,97.1z"/>
		<path class="st3" d="M142.5,95.2c-0.4,0.6-1.5,1-1,2.4c-3-2-6.3-2.1-9.5-2.2c-1.4-0.1-2.8-0.4-3.8-1.5c-0.5-0.5-0.6-0.8,0.1-1.2
			c1.1-0.7,2.2-1.5,3.5-0.4c0.3,0.2,0.7,0.3,1.1,0.3c0.9,0.2,1.9,0.2,1.9,1.7c0,0.8,0.7,1.3,1.7,0.7c0.9-0.7,1.5-2.1,3.1-1.6
			C140.6,93.7,141.7,94.2,142.5,95.2z"/>
		<path class="st5" d="M135.9,90.9c-0.8,1.1-3.8,1.2-4.5,0.3c-0.1-0.2-0.1-0.4,0.1-0.6c0.4-0.4,0.9-0.8,1.6-0.6
			C133.9,90.3,134.8,90.6,135.9,90.9z"/>
		<path class="st5" d="M139.8,92.7c0.1-1.2,1-0.8,1.7-1h0c0,0.3,0.2,0.4,0.5,0.3l0,0c0,0.2,0,0.3-0.1,0.5l0,0.1c0,0.3,0,0.5-0.1,0.8
			C141,93.4,140.4,92.9,139.8,92.7z"/>
		<path class="st1" d="M141.8,93.3c0-0.3,0-0.5,0.1-0.8c0.1,0,0.1,0.1,0.1,0.1c1.1-0.1,1.2,0.6,1.2,1.4
			C142.6,93.9,142,93.9,141.8,93.3z"/>
		<path class="st3" d="M141.9,91.9L141.9,91.9c0-0.3-0.2-0.3-0.4-0.3h0c-0.3-0.5-0.8-0.6-1.4-0.6c0.6-1.5,2-1.3,3.1-1.6
			c0.4-0.1,0.4,0.3,0.5,0.7c0.2,0.7-0.4,1.3-0.2,2c-0.1-0.1-0.2-0.1-0.3-0.1C142.7,91.8,142.3,91.8,141.9,91.9z"/>
		<path class="st1" d="M143.1,91.9c0.1,0,0.2,0,0.3,0.1c0.2,0.1,0.2,0.3,0,0.3C143.1,92.4,143,92.2,143.1,91.9z"/>
		<path class="st3" d="M141.9,92.6c0-0.1-0.1-0.1-0.1-0.1l0-0.1C141.9,92.5,141.9,92.5,141.9,92.6z"/>
		<path class="st4" d="M131.3,85.2c0.7-0.5,1.6-0.5,2.4-0.7c0.2,0.1,0.4,0.2,0.6,0.3c-0.9,0.6-1.9,0.7-3,0.6
			C131.3,85.3,131.3,85.2,131.3,85.2z"/>
		<path class="st4" d="M157.8,103.2c0.1-0.1,0.2-0.3,0.3-0.4c0,0.1,0,0.3,0,0.4C158,103.1,157.9,103.1,157.8,103.2L157.8,103.2z"/>
		<path class="st1" d="M157.8,103.1c0.1,0,0.2,0,0.3,0c-0.1,0.1-0.1,0.2-0.2,0.2C157.9,103.3,157.8,103.2,157.8,103.1z"/>
		<path class="st1" d="M185.9,125.4c0.3,0.2,0.8-0.1,1,0.3c-0.1,0.3-0.3,0.6-0.4,0.9c-5.7,0.2-11.4,0.7-17.1,0.3
			c1.3-1,2.8-0.9,4.3-0.9c3.9,0.1,7.7,0,11.5-0.3C185.5,125.7,185.8,125.7,185.9,125.4z"/>
		<path class="st4" d="M186.5,126.6c0.1-0.3,0.3-0.6,0.4-0.9c0.8,0,1.5-0.3,2.3-0.6c0.3,0,0.7,0,1,0c-0.1,0.3-0.3,0.7-0.4,1
			C188.8,126.6,187.6,126.4,186.5,126.6z"/>
		<path class="st3" d="M128.7,87.6c-2.9,2.3-2.9,2.3-4.3-1c-0.5-1.2-0.8-2.6-1.7-3.6c-0.3-0.3,0-0.4,0.2-0.6
			c0.6-0.4,1.2-0.9,1.9-1.3c0.6-0.4,1.3-0.8,1.6,0.4c0.1,0.5,0.6,0.7,1.2,0.7c0.4,0,0.9-0.7,1.3,0.1c0.4,0.8,0.6,1.7,0.9,2.6
			c0.1,0.2-0.2,0.3-0.4,0.4C127.5,85.9,127.4,86.2,128.7,87.6z"/>
		<path class="st1" d="M141.4,91.7c0.3,0,0.4,0,0.5,0.3C141.7,92,141.5,92,141.4,91.7z"/>
	</g>
</g>
<g>
	<path d="M68.5,41.6v-3.8h1.3v3.8H68.5z M70.7,41.6v-3.8H72v3.8H70.7z"/>
	<path d="M73.8,46.3v-8.6h1.9l3.6,5.8v-5.8H81v8.6h-1.9l-3.6-5.7v5.7H73.8z"/>
	<path d="M82.3,42c0-1.3,0.4-2.4,1.1-3.2c0.8-0.9,1.8-1.3,3.1-1.3s2.3,0.4,3.1,1.3c0.7,0.8,1.1,1.9,1.1,3.2c0,1.3-0.4,2.3-1.1,3.2
		c-0.8,0.9-1.8,1.3-3.1,1.3s-2.3-0.4-3.1-1.3C82.7,44.4,82.3,43.3,82.3,42z M84.2,42c0,0.8,0.2,1.5,0.5,2c0.4,0.6,1,0.9,1.8,0.9
		s1.4-0.3,1.8-0.9c0.3-0.5,0.5-1.2,0.5-2c0-0.8-0.2-1.5-0.5-2c-0.4-0.6-1-0.9-1.8-0.9s-1.4,0.3-1.8,0.9C84.4,40.5,84.2,41.2,84.2,42
		z"/>
	<path d="M95.4,46.3v-8.6h3.9c1,0,1.8,0.3,2.3,0.8c0.5,0.5,0.7,1.1,0.7,1.9s-0.2,1.4-0.7,1.9c-0.5,0.6-1.3,0.8-2.3,0.8h-2v3.1H95.4z
		 M97.3,39.2v2.6h1.5c0.5,0,0.9-0.1,1.2-0.2c0.3-0.2,0.5-0.6,0.5-1.1s-0.2-0.8-0.5-1.1c-0.3-0.2-0.6-0.2-1.2-0.2L97.3,39.2
		L97.3,39.2z"/>
	<path d="M103.4,46.3v-8.6h1.9V41h3.5v-3.3h1.9v8.6h-1.9v-3.7h-3.5v3.7H103.4z"/>
	<path d="M111.9,42c0-1.3,0.4-2.4,1.1-3.2c0.8-0.9,1.8-1.3,3.1-1.3s2.3,0.4,3.1,1.3c0.7,0.8,1.1,1.9,1.1,3.2c0,1.3-0.4,2.3-1.1,3.2
		c-0.8,0.9-1.8,1.3-3.1,1.3s-2.3-0.4-3.1-1.3C112.3,44.4,111.9,43.3,111.9,42z M113.8,42c0,0.8,0.2,1.5,0.5,2c0.4,0.6,1,0.9,1.8,0.9
		s1.4-0.3,1.8-0.9c0.3-0.5,0.5-1.2,0.5-2c0-0.8-0.2-1.5-0.5-2c-0.4-0.6-1-0.9-1.8-0.9s-1.4,0.3-1.8,0.9
		C114,40.5,113.8,41.2,113.8,42z"/>
	<path d="M123.5,46.3v-7h-2.6v-1.6h7v1.6h-2.6v7H123.5z"/>
	<path d="M128.6,42c0-1.3,0.4-2.4,1.1-3.2c0.8-0.9,1.8-1.3,3.1-1.3s2.3,0.4,3.1,1.3c0.7,0.8,1.1,1.9,1.1,3.2c0,1.3-0.4,2.3-1.1,3.2
		c-0.8,0.9-1.8,1.3-3.1,1.3s-2.3-0.4-3.1-1.3C128.9,44.4,128.6,43.3,128.6,42z M130.5,42c0,0.8,0.2,1.5,0.5,2c0.4,0.6,1,0.9,1.8,0.9
		s1.4-0.3,1.8-0.9c0.4-0.5,0.5-1.2,0.5-2c0-0.8-0.2-1.5-0.5-2c-0.4-0.6-1-0.9-1.8-0.9s-1.4,0.3-1.8,0.9
		C130.6,40.5,130.5,41.2,130.5,42z"/>
	<path d="M140.7,46.3l3.3-8.6h1.9l3.2,8.6h-2l-0.6-1.9h-3.2l-0.7,1.9H140.7z M144.9,39.8l-1.1,3.1h2.2L144.9,39.8L144.9,39.8z"/>
	<path d="M156.7,37.7l-2.8,8.6h-2.1l-2.8-8.6h1.9l1.9,6h0l1.9-6H156.7z"/>
	<path d="M156.5,46.3l3.3-8.6h1.9l3.2,8.6h-2l-0.6-1.9h-3.2l-0.7,1.9H156.5z M160.7,39.8l-1.1,3.1h2.2L160.7,39.8L160.7,39.8z"/>
	<path d="M165.6,46.3v-8.6h1.9v8.6H165.6z"/>
	<path d="M169.2,46.3v-8.6h1.9v7h4.2v1.6L169.2,46.3L169.2,46.3z"/>
	<path d="M175.4,46.3l3.3-8.6h1.9l3.2,8.6h-2l-0.6-1.9h-3.2l-0.7,1.9H175.4z M179.6,39.8l-1.1,3.1h2.2L179.6,39.8L179.6,39.8z"/>
	<path d="M184.5,46.3v-8.6h4c1.8,0,2.7,0.7,2.7,2.1c0,0.8-0.4,1.4-1.2,1.8c1.1,0.3,1.6,1,1.6,2.2c0,0.8-0.3,1.5-0.9,1.9
		c-0.5,0.4-1.2,0.6-2.1,0.6C188.7,46.3,184.5,46.3,184.5,46.3z M186.4,39.2v2h1.9c0.8,0,1.1-0.3,1.1-1c0-0.7-0.4-1-1.3-1H186.4z
		 M186.4,42.5v2.3h2c0.9,0,1.4-0.4,1.4-1.1c0-0.8-0.4-1.2-1.4-1.2C188.4,42.5,186.4,42.5,186.4,42.5z"/>
	<path d="M192.9,46.3v-8.6h1.9v7h4.2v1.6L192.9,46.3L192.9,46.3z"/>
	<path d="M200.1,46.3v-8.6h6.4v1.6h-4.5v1.8h4.1v1.5h-4.1v2.1h4.6v1.6L200.1,46.3L200.1,46.3z"/>
	<path d="M208,41.6v-3.8h1.3v3.8H208z M210.3,41.6v-3.8h1.3v3.8H210.3z"/>
</g>
</svg>
